<svg width="40" height="40" viewBox="0 0 40 40" fill="none" xmlns="http://www.w3.org/2000/svg">
<path d="M4.19403 38.4232C3.90315 37.8051 4.00623 36.9649 4.07817 36.3173C4.30823 34.2468 5.37706 32.1867 6.23853 30.3133C7.38381 27.8228 8.77665 25.5007 10.1367 23.1303C11.5554 20.6578 14.2616 17.7867 17.1971 17.2626C19.6247 16.8291 22.3224 16.8927 24.6322 17.7532C25.8212 18.1962 26.6598 18.6192 27.4741 19.6001C28.3293 20.6302 29.1507 21.6956 29.9411 22.7759C33.1313 27.1358 35.7203 32.1492 35.7203 37.6872" stroke="black" stroke-linecap="round"/>
<path d="M14.7436 23.7026C15.0952 24.0151 15.6149 24.2934 15.2956 24.868C15.0702 25.2738 14.5294 25.8016 14.0689 25.9039C13.5778 26.013 13.0262 25.5734 13.0262 25.052C13.0262 24.6796 13.7349 24.3297 14.0076 24.1933" stroke="black" stroke-linecap="round"/>
<path d="M22.2265 23.335C20.8583 23.335 20.7145 25.2977 22.1038 25.2977C22.5916 25.2977 23.3305 24.9935 23.3305 24.439C23.3305 23.7957 22.7388 23.8256 22.2265 23.8256" stroke="black" stroke-linecap="round"/>
<path d="M13.1489 31.3086C13.4701 31.5422 14.0084 31.586 14.3824 31.7379C15.1032 32.0307 15.8378 32.2386 16.6178 32.2831C17.9682 32.3603 19.3404 32.29 20.6931 32.29C21.5205 32.29 22.3782 32.2134 23.2079 32.1673C23.5003 32.151 23.7226 31.7873 23.9439 31.6766" stroke="black" stroke-linecap="round"/>
</svg>
