<svg width="40" height="40" viewBox="0 0 40 40" fill="none" xmlns="http://www.w3.org/2000/svg">
<path d="M2.16602 38.8819C2.22706 38.3325 3.57354 37.5728 3.93445 37.1036C4.70732 36.0989 5.46928 35.0747 6.15734 34.0113C7.16458 32.4547 8.4352 31.1767 9.85228 29.9904C11.7176 28.4287 13.5434 26.62 15.612 25.347C16.1766 24.9995 16.3483 24.4776 17.0446 24.4776C18.3289 24.4776 19.6132 24.4776 20.8976 24.4776C22.9196 24.4776 24.9416 24.4776 26.9636 24.4776C29.4958 24.4776 32.0233 24.2998 34.5313 24.2998C34.8115 24.2998 37.0545 24.102 37.1691 24.3887C37.1795 24.4145 36.347 24.9578 36.2701 25.0111C35.5647 25.4994 35.0414 26.2192 34.3535 26.7499C32.7624 27.9773 31.4131 29.5208 29.9077 30.8894C27.0001 33.5327 24.3657 36.9404 20.8383 38.7041" stroke="black" stroke-linecap="round"/>
<path d="M15.0941 29.724H17.7397" stroke="black" stroke-linecap="round"/>
<path d="M16.5757 28.0309V31.3114" stroke="black" stroke-linecap="round"/>
<path d="M21.5493 29.6182H23.6658" stroke="black" stroke-linecap="round"/>
<path d="M22.396 28.0309V30.8881" stroke="black" stroke-linecap="round"/>
</svg>
