<svg width="40" height="40" viewBox="0 0 40 40" fill="none" xmlns="http://www.w3.org/2000/svg">
<path d="M4.35919 38.4236C4.35919 37.4238 4.38332 36.2621 4.66236 35.3134C4.90348 34.4936 4.92091 33.5815 5.27991 32.7983C5.60495 32.0891 6.26282 31.53 6.53749 30.7884C7.33747 28.6284 9.80049 26.6353 11.433 25.0844C12.3943 24.1712 14.6135 22.6591 15.9244 22.6591C18.5517 22.6591 21.1364 22.457 23.7617 22.457C25.6333 22.457 27.4724 22.6715 29.1176 23.5573C31.1445 24.6487 32.6625 26.9486 33.6651 29.0255C34.5008 30.7565 35.4342 32.4646 36.0904 34.2692C36.5408 35.5076 35.8883 36.7628 35.8883 38.0194" stroke="black" stroke-linecap="round"/>
<path d="M14.4647 27.5097C12.3548 29.8833 17.3106 32.5734 18.6641 30.1371C19.3766 28.8546 18.3726 27.7186 17.137 27.3525C15.9906 27.0128 15.1173 27.1574 14.0605 27.5097" stroke="black" stroke-linecap="round"/>
<path d="M24.9744 27.3076C24.8419 27.8376 23.839 27.9887 23.7617 28.7224C23.6826 29.4742 23.5246 30.0425 24.413 30.3842C25.1266 30.6586 26.2042 31.0151 26.9955 30.6986C27.7505 30.3965 27.7462 30.0506 28.2082 29.5308C29.1554 28.4651 28.5843 26.8492 27.2874 26.5441C25.856 26.2073 24.8001 27.0222 24.3681 28.3181" stroke="black" stroke-linecap="round"/>
</svg>
