<svg width="40" height="40" viewBox="0 0 40 40" fill="none" xmlns="http://www.w3.org/2000/svg">
<g clip-path="url(#clip0_102_62)">
<path d="M11.9544 38.5178C10.8906 38.305 10.2501 35.9586 9.88873 35.171C9.09066 33.4317 8.40287 31.6492 7.58475 29.9176C6.7548 28.1608 5.82814 26.396 5.37014 24.4953C4.67804 21.623 4.08905 18.8233 4.08905 15.8752C4.08905 13.4783 4.22875 10.8526 6.05538 9.12215C6.93049 8.2931 8.48048 7.71395 9.64045 7.42395C11.6599 6.91908 13.7904 6.30652 15.8473 6.02369C17.7003 5.7689 19.4632 5.26894 21.349 5.26894C22.914 5.26894 24.442 5.25602 25.9868 5.43776C28.3285 5.71326 30.309 6.77877 32.1539 8.22836C33.5332 9.31209 33.8897 10.8097 34.6168 12.3199C35.5491 14.2561 35.7171 16.4185 35.9078 18.5168C36.1782 21.4909 36.3516 24.7336 36.0469 27.7129C35.8316 29.8179 35.0298 31.5464 34.1997 33.4331C32.9933 36.175 30.5259 37.8619 28.2213 39.5903" stroke="black" stroke-linecap="round"/>
<path d="M12.8481 14.5643C14.0134 14.5643 15.1786 14.5643 16.3438 14.5643C16.9588 14.5643 17.8672 14.4023 18.4691 14.5743C18.5143 14.5872 16.9239 17.7417 16.7907 18.0302C16.1587 19.3997 15.3633 19.5387 14.457 18.1792C13.8234 17.2289 12.8481 16.1321 12.8481 14.9218" stroke="black" stroke-linecap="round"/>
<path d="M25.7187 14.0281H29.4726" stroke="black" stroke-linecap="round"/>
<path d="M25.3611 14.0281C25.4318 14.5935 25.8289 15.1978 25.9073 15.8256C25.9835 16.4349 26.5371 17.9532 26.8905 18.4076C27.9189 19.7298 29.4911 15.3081 29.8301 14.7431" stroke="black" stroke-linecap="round"/>
<path d="M19.2834 25.2898C19.4079 24.1694 22.9454 24.5748 23.5736 24.5748C24.3077 24.5748 27.5063 24.007 27.5063 25.1408C27.5063 30.205 19.5453 36.017 15.9268 30.4737C15.104 29.2133 14.8145 27.6603 14.8145 26.1836C14.8145 25.4177 15.3888 25.4477 15.8871 25.0117C16.5568 24.4257 18.3055 24.7535 19.1444 24.7535C19.727 24.7535 20.3096 24.7535 20.8923 24.7535" stroke="black" stroke-linecap="round"/>
</g>
<defs>
<clipPath id="clip0_102_62">
<rect width="40" height="40" fill="white"/>
</clipPath>
</defs>
</svg>
