<svg width="40" height="40" viewBox="0 0 40 40" fill="none" xmlns="http://www.w3.org/2000/svg">
<path d="M13.61 39.054C13.0357 39.5646 10.3469 35.2987 10.0746 34.8036C9.3973 33.5721 9.02669 32.33 8.69421 31C8.49422 30.2001 8.4091 28.5611 8.82331 27.8321C9.26582 27.0532 10.3186 26.3076 11.0677 25.826C12.6988 24.7775 14.3575 24.0769 16.202 23.5915C18.041 23.1076 20.0398 23.3234 21.9322 23.3234C26.0332 23.3234 31.307 24.698 31.307 29.6693C31.307 31.8516 31.2124 33.677 30.2742 35.6577C29.951 36.3398 29.6957 36.9567 29.2612 37.5843C28.8808 38.1338 28.2821 38.4967 27.9106 39.054" stroke="black" stroke-linecap="round"/>
<path d="M14.6825 28.6861C14.3319 28.73 15.1011 30.6416 15.3181 30.9206C15.8462 31.5996 16.2197 31.5462 17.0461 31.5462C18.6791 31.5462 18.7939 29.5786 18.7939 28.3286" stroke="black" stroke-linecap="round"/>
<path d="M22.9054 28.6862C22.9765 29.9664 23.935 32.1644 25.408 32.0825C25.8655 32.0571 27.1956 31.0361 27.1956 30.5631C27.1956 29.9375 27.1956 29.3118 27.1956 28.6862" stroke="black" stroke-linecap="round"/>
</svg>
