<svg width="40" height="40" viewBox="0 0 40 40" fill="none" xmlns="http://www.w3.org/2000/svg">
<g clip-path="url(#clip0_102_96)">
<path d="M5.63328 39.3729C5.1626 39.3141 6.38203 33.1532 6.53858 32.4994C7.0984 30.1614 7.96714 28.0832 9.03651 25.9444C9.68193 24.6536 10.6898 23.6103 11.3333 22.3233C11.5709 21.848 11.7892 21.3516 12.0458 20.8899C12.1417 20.7173 12.215 20.1406 12.3559 20.0601C12.6287 19.9042 12.9755 19.0219 13.1439 18.7021C13.3504 18.3096 13.4791 17.9395 13.4791 17.4951C13.4791 17.0659 13.6069 16.7718 13.7809 16.3802C13.9919 15.9055 14.6743 17.2872 14.7533 17.4112C15.7901 19.0406 18.7893 18.4003 20.4868 18.4003C21.1731 18.4003 22.3576 18.6301 22.9847 18.3165C23.9842 17.8168 25.0048 17.4985 25.9688 16.8915C26.1471 16.7793 26.837 16.2261 26.9747 16.3048C27.1932 16.4296 27.0585 17.5516 27.0585 17.7968C27.0585 18.5118 27.1072 19.3812 27.2429 20.0936C27.9469 23.7894 29.2348 27.1474 30.5288 30.6888C31.154 32.3999 31.7359 34.4113 31.7359 36.2799C31.7359 37.4673 32.0376 38.4935 32.0376 39.6747" stroke="black" stroke-linecap="round"/>
<path d="M15.4406 24.2847C15.7111 24.3185 15.2307 24.5275 14.9879 24.2847" stroke="black" stroke-linecap="round"/>
<path d="M23.4374 24.7374C23.225 24.7109 23.2865 24.7604 23.2865 24.7374" stroke="black" stroke-linecap="round"/>
<path d="M19.3635 28.3586C19.0846 28.3586 18.5668 28.0568 19.0617 28.0568" stroke="black" stroke-linecap="round"/>
<path d="M16.0441 32.2815C17.8574 32.3382 19.6591 32.4324 21.4758 32.4324" stroke="black" stroke-linecap="round"/>
</g>
<defs>
<clipPath id="clip0_102_96">
<rect width="40" height="40" fill="white"/>
</clipPath>
</defs>
</svg>
