<svg width="40" height="40" viewBox="0 0 40 40" fill="none" xmlns="http://www.w3.org/2000/svg">
<g clip-path="url(#clip0_102_66)">
<path d="M6.73203 39.9478C5.9884 39.7619 6.88975 35.5059 6.99023 34.9824C7.43467 32.6666 8.08133 30.5075 8.96649 28.3286C9.47316 27.0814 9.9434 25.5083 11.0222 24.6144C11.6836 24.0664 12.3319 23.5387 12.9885 22.9758C14.0755 22.0442 16.3417 21.5358 17.7256 21.5358C19.6359 21.5358 21.6608 21.3353 23.5551 21.5458C27.8523 22.0232 30.4365 25.1524 31.758 29.0436C32.4895 31.1975 32.9314 33.4359 33.0093 35.6974C33.0385 36.5439 32.8974 38.7073 33.3668 39.4116" stroke="black" stroke-linecap="round"/>
<path d="M14.2399 26.0048C14.5551 26.0442 14.4242 28.2608 14.5577 28.6464C14.7028 29.0658 15.128 29.7954 15.5905 29.9275C16.4813 30.1821 16.544 29.4605 16.8418 28.8649C17.2033 28.1419 17.1 27.3836 17.1 26.5808C17.1 25.7422 16.9555 25.653 16.4644 25.0216C15.4682 23.7409 14.9549 25.884 14.9549 26.5411" stroke="black" stroke-linecap="round"/>
<path d="M23.3565 25.4685C23.0805 25.2271 22.5931 26.5768 22.5024 26.8589C22.318 27.4327 22.3439 28.6396 22.5521 29.2224C23.0638 30.6552 24.8289 30.2672 25.2831 28.9046C25.5513 28.1 25.7638 26.5183 25.3228 25.7466C24.9234 25.0476 23.6967 24.9323 22.999 24.9323" stroke="black" stroke-linecap="round"/>
<path d="M15.8487 27.7924C16.6861 27.897 15.8849 29.6326 15.8487 28.7259C15.7792 26.9899 16.5598 29.0039 16.0076 29.0039C15.4243 29.0039 15.3124 28.3241 15.3124 27.9016C15.3124 27.8596 15.2046 28.8372 15.1436 28.7457C15.018 28.5574 15.4233 26.6952 15.8487 27.9711" stroke="black" stroke-linecap="round"/>
<path d="M22.999 27.9711C23.0428 28.3214 23.5201 28.5108 23.5353 28.9046C23.5721 29.8618 23.3565 29.4066 23.3565 28.6961C23.3565 28.047 23.7141 28.0214 23.7141 28.6862C23.7141 29.2535 23.5353 28.7422 23.5353 28.418C23.5353 27.821 24.0716 27.9575 24.0716 28.5074C24.0716 29.3231 23.7713 27.7503 24.0318 28.0109C24.6849 28.6639 23.1778 29.7768 23.1778 27.9711" stroke="black" stroke-linecap="round"/>
<path d="M23.3565 28.6862C23.3565 28.2094 23.1777 27.7641 23.1777 27.2561" stroke="black" stroke-linecap="round"/>
<path d="M15.1337 23.5022C15.0336 24.3031 13.0132 24.7043 12.6311 25.4685" stroke="black" stroke-linecap="round"/>
<path d="M23.8928 23.5022C24.9104 23.6153 25.5774 25.111 26.5742 25.111" stroke="black" stroke-linecap="round"/>
<path d="M16.2062 33.3339C16.2936 34.1205 18.1881 34.5852 18.7882 34.5852C19.8559 34.5852 20.5192 34.272 21.3901 33.6914" stroke="black" stroke-linecap="round"/>
<path d="M23.4436 27.397C23.4643 27.3141 23.7628 27.6206 23.7889 27.6586C23.8673 27.7726 23.9411 27.8802 24.0174 27.9947" stroke="black" stroke-linecap="round"/>
<path d="M23.9696 28.951C23.9036 28.984 24.0413 29.4238 24.0413 29.5248" stroke="black" stroke-linecap="round"/>
<path d="M23.865 28.9946C24.0174 28.9946 24.2227 28.9408 24.2923 29.08" stroke="black" stroke-linecap="round"/>
<path d="M24.3033 28.3331C24.4218 28.3462 24.5835 28.5438 24.6479 28.6368C24.6894 28.6968 24.6889 28.7646 24.7397 28.8154" stroke="black" stroke-linecap="round"/>
</g>
<defs>
<clipPath id="clip0_102_66">
<rect width="40" height="40" fill="white"/>
</clipPath>
</defs>
</svg>
