<svg width="40" height="40" viewBox="0 0 40 40" fill="none" xmlns="http://www.w3.org/2000/svg">
<g clip-path="url(#clip0_102_67)">
<path d="M9.81777 39.4116C9.26007 39.9073 9.46025 38.4486 9.46025 38.1603C9.46025 36.7898 9.46025 35.4193 9.46025 34.0489C9.46025 31.8493 9.40187 29.6548 9.67873 27.4746C9.8001 26.5188 10.1025 25.704 10.0065 24.7436C9.9159 23.8381 10.0274 22.9493 10.1753 22.0622C10.5101 20.0536 10.9803 18.221 11.5259 16.2725C11.7377 15.5159 12.473 14.4448 13.0354 13.8493C13.6754 13.1716 14.6546 12.9461 15.4486 12.5186C16.3614 12.0271 17.7259 12.0512 18.7159 11.7439C19.8722 11.3851 21.3041 11.5255 22.5095 11.5255C24.0512 11.5255 25.1763 12.0065 26.6209 12.4192C27.5745 12.6917 28.8029 13.2165 29.3817 14.0678C31.1649 16.6901 31.2269 20.2378 32.0631 23.2241C32.288 24.0272 32.3181 24.958 32.4802 25.7863C32.6666 26.7388 32.8774 27.7515 32.8774 28.7259C32.8774 30.434 32.8774 32.1421 32.8774 33.8502C32.8774 35.8232 32.8774 37.7961 32.8774 39.7691" stroke="black" stroke-linecap="round"/>
<path d="M15.538 20.8209C16.2238 20.2722 17.5794 20.4633 18.3881 20.4633C18.6869 20.4633 20.0691 20.2475 20.3247 20.5031C20.8471 21.0255 19.9864 22.9395 19.5501 23.3135C17.6118 24.9749 15.6591 22.5219 14.6442 20.9996" stroke="black" stroke-linecap="round"/>
<path d="M24.4758 20.8209C25.7733 20.8209 27.4235 20.6362 28.5873 21.2181C29.4208 21.6348 28.8144 23.4815 27.9616 23.671C27.1363 23.8544 26.0743 24.0339 25.2803 23.681C24.4686 23.3202 24.1947 22.1225 23.9396 21.3571" stroke="black" stroke-linecap="round"/>
<path d="M26.2634 22.0721V22.6084" stroke="black" stroke-linecap="round"/>
<path d="M17.8618 22.4297L18.0406 22.2509" stroke="black" stroke-linecap="round"/>
<path d="M21.2582 25.6473C20.9572 25.9858 20.8151 26.4828 20.6325 26.8886C20.5103 27.1603 19.7695 27.9198 19.8579 28.2293C19.9429 28.527 22.3228 28.3286 22.867 28.3286" stroke="black" stroke-linecap="round"/>
</g>
<defs>
<clipPath id="clip0_102_67">
<rect width="40" height="40" fill="white"/>
</clipPath>
</defs>
</svg>
