<svg width="40" height="40" viewBox="0 0 40 40" fill="none" xmlns="http://www.w3.org/2000/svg">
<path d="M20.2325 23.5022C17.7048 23.1862 14.9393 24.4648 12.9034 26.0842C10.0212 28.3769 8.77048 31.6217 9.59643 35.2008C10.104 37.4004 11.601 38.6658 13.8767 38.6965C15.6139 38.72 17.353 38.6965 19.0904 38.6965C20.0955 38.6965 21.0117 38.4577 22.0002 38.3589C22.8446 38.2744 23.6584 38.3798 24.4929 38.1603C26.9708 37.5082 28.3301 35.5006 28.4454 32.9068C28.5321 30.9564 29.0285 27.8696 27.919 26.1438C25.9916 23.1455 21.8317 23.3234 18.6237 23.3234" stroke="black" stroke-linecap="round"/>
<path d="M15.9423 28.8649H16.121" stroke="black" stroke-linecap="round"/>
<path d="M21.8413 28.8649H22.5563" stroke="black" stroke-linecap="round"/>
<path d="M15.9423 28.6862H16.6573" stroke="black" stroke-linecap="round"/>
<path d="M16.1211 32.9763C16.1839 33.5423 16.5798 34.7347 17.2035 34.9427C18.4576 35.3607 19.3094 34.7524 20.4013 34.1382C21.9481 33.2682 20.405 32.8189 19.3387 32.7976C18.148 32.7738 16.9546 32.7976 15.7635 32.7976" stroke="black" stroke-linecap="round"/>
</svg>
