<svg width="40" height="40" viewBox="0 0 40 40" fill="none" xmlns="http://www.w3.org/2000/svg">
<g clip-path="url(#clip0_102_69)">
<path d="M5.44242 39.9479C5.44242 37.0654 5.29493 34.1576 5.79993 31.308C6.08113 29.7212 6.26548 28.162 6.42558 26.561C6.54138 25.4029 6.98879 24.3098 7.0413 23.1546C7.0712 22.4969 7.18177 21.869 7.22999 21.2181C7.27013 20.6762 8.03242 21.8333 8.12377 21.9729C8.90145 23.161 9.52813 25.3082 10.6661 26.1836C11.073 26.4966 11.2687 26.8986 11.7982 26.8986C12.6345 26.8986 13.1535 25.8207 13.556 25.2104C14.3039 24.0764 15.1447 22.8962 15.7011 21.6551C15.8251 21.3785 16.0047 20.7449 16.2473 20.5428C16.6292 20.2245 17.6878 22.3056 17.8561 22.529C18.5237 23.4151 19.1494 24.2758 19.7827 25.1905C19.9065 25.3693 20.0559 25.9917 20.2793 26.0048C21.93 26.1019 24.0466 23.6068 25.1752 22.7078C25.4368 22.4994 28.9658 19.5151 29.0284 20.2349C29.3937 24.4356 29.0384 28.798 29.0384 33.0161C29.0384 35.1479 29.0384 37.2798 29.0384 39.4116" stroke="black" stroke-linecap="round"/>
<path d="M13.1289 29.7587C12.6916 29.7587 11.1626 29.5124 11.1626 30.2056C11.1626 31.7639 12.0623 31.7251 13.3077 31.7251C14.4187 31.7251 14.7746 30.8554 14.7377 29.8978C14.715 29.3066 13.525 29.1454 13.3077 29.58" stroke="black" stroke-linecap="round"/>
<path d="M22.0668 29.9375C22.0158 29.5292 19.8218 29.7085 19.5642 29.9375C18.6898 30.7147 19.7239 31.3796 20.458 31.725C21.1707 32.0604 22.7535 32.1284 23.0996 31.2285C23.3736 30.5163 22.5645 29.8288 22.0668 29.58" stroke="black" stroke-linecap="round"/>
<path d="M22.0669 31.3675C22.3066 31.3276 21.4313 31.01 21.4313 31.01C21.4313 31.01 21.9742 31.01 22.2456 31.01" stroke="black" stroke-linecap="round"/>
<path d="M13.3077 30.6525C13.3799 30.869 14.0228 29.196 14.0228 30.6525" stroke="black" stroke-linecap="round"/>
<path d="M14.9165 34.4064C15.556 34.7073 16.5422 34.9426 17.2403 34.9426" stroke="black" stroke-linecap="round"/>
</g>
<defs>
<clipPath id="clip0_102_69">
<rect width="40" height="40" fill="white"/>
</clipPath>
</defs>
</svg>
