<svg width="40" height="40" viewBox="0 0 40 40" fill="none" xmlns="http://www.w3.org/2000/svg">
<g clip-path="url(#clip0_102_70)">
<path d="M16.0359 39.7691C15.9744 38.7245 15.1674 37.6605 14.8243 36.6905C13.7642 33.6929 12.008 31.0793 10.703 28.1896C9.77539 26.1357 8.38699 24.0421 7.98187 21.8139C7.88884 21.3022 6.84473 19.3908 7.90242 19.3908C9.65689 19.3908 11.4114 19.3908 13.1658 19.3908C13.8006 19.3908 15.6013 19.0777 15.9366 19.7483C16.7492 21.3735 17.4823 22.9225 18.3696 24.4754C18.9584 25.5056 19.5175 26.6123 20.2267 27.5242C20.4 27.747 20.7299 28.5074 21.0411 28.5074C21.6744 28.5074 22.2314 27.2274 22.4711 26.7992C23.5637 24.8483 24.8332 22.9474 26.4435 21.3968C27.0909 20.7734 27.9067 19.6622 28.7276 19.2517C29.7663 18.7324 31.2717 19.5695 32.3028 19.5695C34.4139 19.5695 32.8903 21.0522 32.3425 22.0721C31.5968 23.4607 30.9279 24.8849 30.1676 26.263C29.6483 27.2042 29.5131 28.2595 29.0851 29.2224C28.8548 29.7408 28.5489 30.6269 28.5489 31.1887C28.5489 31.8005 28.213 32.231 28.1914 32.8373C28.1655 33.5609 27.9127 34.4943 27.7445 35.2008C27.6012 35.8025 27.5781 36.5458 27.3373 37.0877C26.9909 37.8672 26.971 38.9304 26.7613 39.7691" stroke="black" stroke-linecap="round"/>
<path d="M16.5722 30.1162C16.5722 30.4268 16.3834 31.6771 16.6119 31.8641C16.9352 32.1286 19.4323 32.1249 19.4323 31.5463C19.4323 30.7207 19.6536 30.295 18.7173 30.295C18.1214 30.295 17.5256 30.295 16.9297 30.295" stroke="black" stroke-linecap="round"/>
<path d="M22.6499 30.6525C22.6499 31.1835 22.4372 31.9815 23.0074 32.2216C23.466 32.4146 24.2918 32.2613 24.795 32.2613C25.3446 32.2613 25.689 31.4471 25.2518 31.01C24.859 30.6172 23.7085 30.8312 23.1862 30.8312" stroke="black" stroke-linecap="round"/>
<path d="M19.9686 34.4064C20.1599 35.2673 24.4272 34.0592 22.5605 35.9258C21.7027 36.7836 19.7898 36.4422 19.7898 34.9426" stroke="black" stroke-linecap="round"/>
</g>
<defs>
<clipPath id="clip0_102_70">
<rect width="40" height="40" fill="white"/>
</clipPath>
</defs>
</svg>
