<svg width="40" height="40" viewBox="0 0 40 40" fill="none" xmlns="http://www.w3.org/2000/svg">
<path d="M6 38.2697C6.25511 38.2378 6.47012 37.4817 6.54073 37.2497C6.89143 36.0974 7.23054 35.2235 7.81883 34.1405C9.53664 30.9781 11.0909 27.6554 12.8698 24.5425C14.5069 21.6774 15.6218 18.3935 17.6257 15.817C18.0807 15.232 18.8208 13.1419 19.3831 14.3915C20.762 17.4557 22.5848 20.1553 24.4586 22.9326C26.6363 26.1601 28.7503 29.5418 31.1195 32.6289C32.5618 34.5083 34.4413 36.8797 35.1995 39.1545" stroke="black" stroke-linecap="round"/>
<path d="M15.0695 27.4307C15.4052 27.468 16.251 28.4664 16.3967 28.7579" stroke="black" stroke-linecap="round"/>
<path d="M22.8118 28.3154C22.2716 28.7574 21.679 28.988 21.0421 29.2003" stroke="black" stroke-linecap="round"/>
<path d="M14.6271 33.8457C14.9984 34.8669 16.9376 35.8143 17.8223 36.3773C18.415 36.7545 20.0568 35.905 20.6243 35.6891C21.886 35.209 23.1918 34.7346 24.3602 34.0669" stroke="black" stroke-linecap="round"/>
</svg>
