<svg width="40" height="40" viewBox="0 0 40 40" fill="none" xmlns="http://www.w3.org/2000/svg">
<path d="M19.3003 17.2457C18.7513 18.3437 18.5828 19.5174 18.198 20.6719C17.4918 22.7905 16.6183 24.8393 15.7649 26.8986C14.7688 29.3022 13.6679 31.6097 12.6863 34.0092C12.0714 35.5122 12.1922 38.3495 10.72 39.2329" stroke="black" stroke-linecap="round"/>
<path d="M19.1216 17.6032C18.6239 18.2254 19.4629 19.3422 19.6678 19.9568C20.0469 21.0942 20.6385 22.1112 21.0681 23.2241C21.4089 24.1073 21.6211 25.0488 22.0016 25.9154C22.9743 28.1311 24.1588 30.3154 24.9411 32.6188C25.4267 34.0486 25.751 35.5467 26.3513 36.9189C26.6592 37.6226 26.7585 39.0292 27.5232 39.4116" stroke="black" stroke-linecap="round"/>
<path d="M15.0101 29.7587H17.5127" stroke="black" stroke-linecap="round"/>
<path d="M15.189 30.1162C15.189 30.8936 15.925 31.3943 16.2615 31.9832C16.5905 32.559 17.8354 30.5086 18.0491 30.295" stroke="black" stroke-linecap="round"/>
<path d="M20.9092 29.9374H23.0543" stroke="black" stroke-linecap="round"/>
<path d="M20.7303 29.9374C20.7303 30.8705 20.9803 31.2791 21.4057 32.0825C21.7241 32.6841 22.8717 30.4812 23.0542 30.1162" stroke="black" stroke-linecap="round"/>
</svg>
