<svg width="40" height="40" viewBox="0 0 40 40" fill="none" xmlns="http://www.w3.org/2000/svg">
<path d="M14.4102 38.5646C14.268 33.73 13.9461 28.8021 14.4499 23.9661C14.6399 22.142 15.0268 20.0641 15.6714 18.3452C16.1904 16.9611 16.4344 15.3912 17.1908 14.1146C17.7161 13.2283 17.8752 12.2948 18.7897 11.6617C19.4294 11.2188 20.0751 10.943 20.8057 10.7182C22.3574 10.2408 23.7889 10.9605 24.8575 12.0291C26.0844 13.256 26.3869 15.7357 26.3869 17.3819C26.3869 18.8617 26.4919 20.2984 26.7047 21.7615C26.9573 23.498 26.8215 25.2072 27.1814 26.9553C27.7378 29.658 27.2807 32.8489 27.2807 35.6251C27.2807 36.7241 27.2807 37.8231 27.2807 38.9221" stroke="black" stroke-linecap="round"/>
<path d="M18.1641 19.2588C18.1641 19.8337 18.2829 20.3287 18.3428 20.8676C18.4077 21.4516 19.5854 21.2402 19.9914 21.2251C20.7535 21.1969 21.0242 20.6817 21.0242 19.9738C21.0242 19.3855 20.6134 19.1789 20.3091 18.7225" stroke="black" stroke-linecap="round"/>
<path d="M20.4879 18.7226C19.7166 18.7226 18.8213 18.642 18.1641 19.0801" stroke="black" stroke-linecap="round"/>
<path d="M23.348 19.4376C22.609 19.4376 22.6242 20.3686 22.9905 20.9074C23.5263 21.6953 24.5811 21.4757 25.215 20.957C25.5863 20.6533 26.3813 19.0801 25.4931 19.0801C24.6924 19.0801 23.9489 19.0639 23.1693 19.2589" stroke="black" stroke-linecap="round"/>
<path d="M20.1304 26.9454C21.011 26.9454 21.8915 26.9454 22.7721 26.9454C23.482 26.9454 23.3855 26.1223 23.8843 25.8729" stroke="black" stroke-linecap="round"/>
</svg>
