<svg width="40" height="40" viewBox="0 0 40 40" fill="none" xmlns="http://www.w3.org/2000/svg">
<g clip-path="url(#clip0_102_74)">
<path d="M14.0994 39.8159C13.6534 39.8159 13.4767 39.3511 13.1163 39.1108C12.5659 38.7439 11.911 38.4719 11.4181 38.0283C9.92669 36.6861 9.31533 35.0929 8.55798 33.2416C7.85406 31.5209 7.48543 29.9144 7.48543 28.0576C7.48543 26.4924 7.23819 24.9592 8.73673 23.9959C9.81949 23.2998 10.9312 22.5069 12.1331 22.0395C13.2089 21.6211 14.22 21.56 15.2713 21.0067C16.343 20.4426 16.9536 18.6626 17.2774 17.6103C17.3819 17.2704 17.6647 14.8098 18.1116 14.8098C18.5222 14.8098 18.9998 17.491 19.0947 17.9181C19.2488 18.6117 19.8401 20.1472 20.6241 20.3214C22.6752 20.7772 25.5624 19.8685 26.97 21.9799C27.9438 23.4407 28.0885 26.1528 27.824 27.8392C27.4905 29.9656 26.8722 32.0152 25.808 33.907C25.0359 35.2797 23.9902 35.8241 22.9479 36.8664C22.6105 37.2039 22.2006 37.5871 22.0045 38.0283C21.8815 38.305 22.1435 38.9325 22.1435 39.2796" stroke="black" stroke-linecap="round"/>
<path d="M13.3845 25.8729C12.6782 25.8729 12.3897 28.9697 12.9475 29.5275C13.2675 29.8475 14.3296 29.9984 14.7053 29.7062C15.1542 29.357 15.172 28.429 15.172 27.9186C15.172 27.0293 15.8571 25.6394 14.8145 25.1181C14.4363 24.929 13.9855 24.9542 13.5632 24.9791C13.2505 24.9975 13.3845 25.8157 13.3845 26.0516" stroke="black" stroke-linecap="round"/>
<path d="M20.7135 25.1578C19.2935 25.1578 19.3901 30.3418 20.8029 30.3418C21.9896 30.3418 22.3223 27.8809 22.3223 27.0447C22.3223 26.6502 22.3979 26.1684 22.3124 25.7835C22.2057 25.3033 21.4539 25.2085 21.2498 24.8003" stroke="black" stroke-linecap="round"/>
</g>
<defs>
<clipPath id="clip0_102_74">
<rect width="40" height="40" fill="white"/>
</clipPath>
</defs>
</svg>
