<svg width="40" height="40" viewBox="0 0 40 40" fill="none" xmlns="http://www.w3.org/2000/svg">
<path d="M14.8613 39.4584C14.8613 37.2912 14.1463 35.1624 14.1463 33.0231C14.1463 31.7122 14.1463 30.4013 14.1463 29.0905" stroke="black" stroke-linecap="round"/>
<path d="M25.2292 39.1009C24.9583 36.6629 24.939 34.1008 25.3682 31.6328C25.4528 31.1467 25.3808 30.6525 25.408 30.163C25.4321 29.7291 25.7655 29.3612 25.7655 28.9117" stroke="black" stroke-linecap="round"/>
<path d="M13.4312 33.7382C12.0639 33.5672 10.9463 32.5244 10.015 31.5931C9.59312 31.1712 9.01799 31.0063 8.54521 30.6596C8.11403 30.3434 8.02946 29.8037 7.63156 29.4877C7.13958 29.097 6.88955 29.0235 6.80729 28.3655C6.47779 25.7295 6.13572 23.2269 7.13501 20.7286C7.97534 18.6278 11.4903 17.4689 13.4114 16.9449C15.1594 16.4682 16.9558 16.0412 18.7741 16.0412C20.184 16.0412 21.8802 15.7874 23.253 16.1306C25.7785 16.762 28.1526 17.6113 30.2741 19.0801C32.3436 20.5128 32.7644 22.2681 33.3527 24.6216C34.5183 29.2839 30.1968 33.9169 25.5867 33.9169" stroke="black" stroke-linecap="round"/>
<path d="M17.1852 31.5931C17.1852 30.5181 17.7183 32.2179 16.7482 31.9407C16.1904 31.7813 17.117 29.601 17.7214 31.4143" stroke="black" stroke-linecap="round"/>
<path d="M22.0116 30.3418C21.2789 30.3418 21.3693 31.3473 21.9222 31.5931C22.62 31.9032 23.0144 31.5779 22.5479 30.8781" stroke="black" stroke-linecap="round"/>
</svg>
