<svg width="40" height="40" viewBox="0 0 40 40" fill="none" xmlns="http://www.w3.org/2000/svg">
<g clip-path="url(#clip0_102_76)">
<path d="M12.763 39.6372C13.3171 39.4986 11.5392 38.2216 11.4124 38.1078C10.4744 37.266 9.58235 36.5641 9.04882 35.3867C7.90829 32.8697 7.00356 30.6214 6.59587 27.8491C6.39819 26.5048 6.2642 24.5504 6.86401 23.2908C7.10877 22.7768 7.29111 22.2333 7.61876 21.7614C8.13253 21.0216 8.48056 20.9866 9.18785 20.4704C12.3616 18.1545 15.8635 17.65 19.7345 17.65C21.5916 17.65 23.4487 17.65 25.3058 17.65C26.5432 17.65 27.6135 17.6471 28.7518 18.1863C29.6301 18.6023 30.9557 18.8332 31.7113 19.4376C32.5069 20.0741 32.7425 20.2106 33.2406 21.1358C33.8127 22.1982 33.4988 23.901 33.4988 25.0784C33.4988 25.9251 33.5168 26.7742 33.4988 27.6207C33.4781 28.5938 32.9926 29.5277 32.8235 30.4808C32.4641 32.5065 30.5377 33.6223 29.6655 35.3668C29.2733 36.1512 28.9512 36.9403 28.583 37.7503C28.3155 38.3387 27.7786 39.2234 27.7786 39.8159" stroke="black" stroke-linecap="round"/>
<path d="M16.1594 22.119C13.5076 22.119 11.7168 25.615 12.9815 27.8392C13.6733 29.0558 16.189 29.9189 17.4803 29.2494C18.4819 28.73 19.2908 27.5492 18.662 26.4489C18.4241 26.0325 18.0733 24.9376 17.5001 24.8102C16.7257 24.6382 15.8184 24.9384 15.2657 25.4359C14.8097 25.8463 14.0688 26.5918 14.8287 27.2135C15.3267 27.621 16.1594 27.6928 16.1594 26.9454" stroke="black" stroke-linecap="round"/>
<path d="M25.276 21.9402C24.557 22.0201 23.7292 22.9522 23.3991 23.5391C22.8957 24.4339 23.1309 25.7199 23.1309 26.7269C23.1309 28.1103 23.8919 28.3754 25.0973 28.3754C25.8948 28.3754 27.1972 28.6171 27.2424 27.4419C27.2628 26.9109 27.4089 25.8867 27.153 25.426C26.6979 24.6069 26.5422 24.6215 25.6335 24.6215C24.6814 24.6215 24.3822 25.2832 24.3822 26.141C24.3822 26.4223 24.2621 26.9625 24.6007 27.0844C25.0446 27.2442 25.3274 26.97 25.4548 26.5879" stroke="black" stroke-linecap="round"/>
</g>
<defs>
<clipPath id="clip0_102_76">
<rect width="40" height="40" fill="white"/>
</clipPath>
</defs>
</svg>
