<svg width="40" height="40" viewBox="0 0 40 40" fill="none" xmlns="http://www.w3.org/2000/svg">
<path d="M16.385 39.4584C14.2939 39.4584 13.5248 34.9204 13.5248 33.3012C13.5248 31.4291 13.2659 29.5836 13.3461 27.7001C13.4192 25.9808 14.3341 23.7071 15.0443 22.1289C15.6074 20.8775 16.0939 19.4682 16.9212 18.3651" stroke="black" stroke-linecap="round"/>
<path d="M25.1441 39.2796C26.0356 39.1806 25.6804 37.2165 25.6804 36.6579C25.6804 35.4172 26.362 34.2196 26.6636 33.0132C27.1437 31.0927 27.1105 29.1052 27.1105 27.1341C27.1105 25.3404 27.3788 23.4155 26.5742 21.7614C25.9292 20.4357 25.4635 17.9948 23.8928 17.4713" stroke="black" stroke-linecap="round"/>
<path d="M17.2788 18.9013H24.0716" stroke="black" stroke-linecap="round"/>
<path d="M16.0274 18.9013C16.0274 17.5548 14.8176 16.303 14.2398 15.1474C14.1142 14.8962 12.5618 11.8964 13.0183 12.039C14.0998 12.377 14.9407 13.1145 15.9281 13.628C16.6344 13.9953 17.3068 14.9649 18.0831 15.1375C18.5168 15.2338 18.7141 15.8068 18.967 15.0481C19.3888 13.7826 19.711 12.2716 19.9501 10.9565C20.0817 10.2329 20.3104 9.3706 20.7645 10.4302C21.2459 11.5536 21.4213 12.8208 21.837 13.9755C21.9403 14.2625 22.3585 15.5099 22.6414 15.6439C23.848 16.2155 25.9626 14.0051 26.9713 13.5386C28.1639 12.987 29.3211 12.3487 30.5067 11.7907C30.5777 11.7574 29.5866 12.7975 29.4739 13.0023C28.8866 14.0701 27.9447 15 27.5076 16.1802C27.0562 17.399 25.9048 18.2278 25.5015 19.4376" stroke="black" stroke-linecap="round"/>
<path d="M16.0275 24.8003C16.5354 24.8567 16.8422 25.5705 17.0901 25.9424C17.2686 26.2101 18.302 26.0608 18.5698 26.0516C19.0129 26.0363 19.6749 25.2622 20.0396 25.3664C20.3292 25.4491 19.7091 26.9247 19.6026 27.0844C19.1751 27.7257 18.1906 28.4521 17.4575 27.7597C16.9855 27.3139 16.6684 26.8414 16.4744 26.2204C16.3366 25.7795 16.4912 25.2109 16.0275 24.9791" stroke="black" stroke-linecap="round"/>
<path d="M21.5689 25.6941C22.7618 25.6941 23.4056 27.0751 24.6078 25.8729C25.395 25.0857 25.5016 25.1704 25.5016 26.2205C25.5016 26.7666 25.5356 27.1834 25.2831 27.6604C24.7544 28.6591 23.1518 28.152 22.5024 27.6207C21.8045 27.0497 21.6007 26.4726 21.2114 25.6941" stroke="black" stroke-linecap="round"/>
<path d="M17.4575 33.0231C18.0092 32.9618 18.5831 31.9931 19.0663 31.6825C19.6989 31.2759 20.4768 31.4143 21.2114 31.4143C21.8371 31.4143 22.4627 31.4143 23.0884 31.4143C24.1273 31.4143 23.7862 32.1483 24.2503 32.8444" stroke="black" stroke-linecap="round"/>
</svg>
