<svg width="40" height="40" viewBox="0 0 40 40" fill="none" xmlns="http://www.w3.org/2000/svg">
<g clip-path="url(#clip0_102_78)">
<path d="M17.683 39.1009C17.6186 39.6165 16.9667 38.0752 16.9184 37.9986C16.1809 36.8308 15.2702 35.8841 14.6442 34.632C14.2548 33.8531 13.6783 33.2564 13.2936 32.4869C12.8141 31.5279 12.5647 30.5617 12.509 29.448C12.3822 26.9112 12.4991 24.342 12.4991 21.8012C12.4991 21.1457 12.4991 20.4903 12.4991 19.8348C12.4991 18.3772 12.9695 17.7891 14.0086 16.6669C15.0228 15.5715 16.0667 14.2654 16.8786 13.0023C17.2304 12.4551 17.6314 11.7034 18.0803 11.2545C18.552 10.7827 19.8965 14.0041 20.3247 14.4721C20.814 15.007 21.1659 15.8504 21.5263 16.4881C21.7406 16.8672 22.152 17.2893 22.152 17.7493C22.152 20.986 22.6882 24.2393 22.6882 27.4817C22.6882 28.1371 22.6882 28.7926 22.6882 29.448C22.6882 31.3474 21.4673 32.6078 20.563 34.1652C20.003 35.1297 19.3756 36.0523 18.9343 37.0452C18.5879 37.8247 17.683 38.7418 17.683 39.6372" stroke="black" stroke-linecap="round"/>
<path d="M15.3592 19.4376C15.3592 20.0054 15.2008 20.5361 15.1804 21.0861C15.1458 22.0201 15.1804 20.0586 15.1804 19.8249C15.1804 19.0592 15.1804 20.3092 15.1804 20.5002C15.1804 21.2304 15.1367 20.6651 15.3592 20.3313" stroke="black" stroke-linecap="round"/>
<path d="M18.3981 19.6163V21.2251" stroke="black" stroke-linecap="round"/>
</g>
<defs>
<clipPath id="clip0_102_78">
<rect width="40" height="40" fill="white"/>
</clipPath>
</defs>
</svg>
