<svg width="40" height="40" viewBox="0 0 40 40" fill="none" xmlns="http://www.w3.org/2000/svg">
<g clip-path="url(#clip0_102_79)">
<path d="M18.0874 31.2356C19.7527 31.2356 21.4671 31.0568 23.0926 31.0568" stroke="black" stroke-linecap="round"/>
<path d="M18.0874 31.4143C18.965 31.5118 18.7494 33.177 19.3387 33.619C19.4976 33.7382 20.4303 31.574 20.59 31.4143" stroke="black" stroke-linecap="round"/>
<path d="M21.4838 31.5931C22.1787 31.6703 22.4165 32.7572 22.5662 33.2813C22.6324 33.513 23.6411 31.2111 23.8076 30.8781" stroke="black" stroke-linecap="round"/>
<path d="M13.2609 40.1734C13.1887 38.6569 12.6964 37.1261 12.4664 35.625C12.0912 33.176 11.6521 30.8891 11.6521 28.3953C11.6521 26.0177 11.7053 23.3302 13.0822 21.2649C14.2437 19.5226 16.8486 18.6983 18.7329 18.0969C20.5386 17.5206 22.8124 17.4501 24.7014 17.66C26.6674 17.8784 27.4369 20.8619 27.9587 22.3374C28.8567 24.8764 29.7426 27.1726 29.8754 29.8949C29.9902 32.2478 30.0932 34.7553 29.5675 37.0551C29.3712 37.9141 29.1703 38.7429 29.1703 39.6372" stroke="black" stroke-linecap="round"/>
</g>
<defs>
<clipPath id="clip0_102_79">
<rect width="40" height="40" fill="white"/>
</clipPath>
</defs>
</svg>
