<svg width="40" height="40" viewBox="0 0 40 40" fill="none" xmlns="http://www.w3.org/2000/svg">
<path d="M20.4476 17C20.4476 17.7793 19.6734 18.4836 19.375 19.1848C18.9471 20.1903 18.5216 21.2787 17.9847 22.2237C17.3756 23.2956 17.2375 24.4381 16.5149 25.4016" stroke="black" stroke-linecap="round"/>
<path d="M20.8051 17.1788C20.8497 18.2958 21.5811 19.0161 21.8776 20.0389C22.2034 21.1627 22.7578 22.3471 23.3871 23.336C23.7549 23.9139 24.042 25.1697 24.7377 25.4016" stroke="black" stroke-linecap="round"/>
<path d="M16.3362 25.7591C16.0869 25.0944 10.5959 25.5804 9.75195 25.5804C8.47234 25.5804 9.07743 25.6518 9.72216 26.2159C11.4166 27.6986 13.7836 28.4549 15.0849 30.4068" stroke="black" stroke-linecap="round"/>
<path d="M24.7378 25.9379C26.8134 25.9379 28.9199 25.8342 30.9943 25.9379C31.7859 25.9775 28.6862 28.0358 28.5116 28.1624C27.3522 29.0029 26.2385 29.9069 25.0953 30.7643" stroke="black" stroke-linecap="round"/>
<path d="M14.5486 30.228C14.21 30.2703 14.3635 31.7926 14.3301 32.0355C14.0468 34.0962 12.7992 36.0322 12.5823 38.0933C12.4779 39.0849 16.1477 36.4753 16.6142 36.127C17.4772 35.4829 18.8342 34.8895 19.1963 33.8032" stroke="black" stroke-linecap="round"/>
<path d="M25.0953 31.3006C25.0953 32.7393 25.764 34.1174 26.3466 35.412C26.5216 35.8009 27.7983 39.0939 27.578 39.0467C27.0068 38.9243 26.4986 38.3434 26.0586 38.004C25.1218 37.2813 24.0407 36.6436 23.0297 36.0277C21.8804 35.3276 20.7054 34.6729 19.5538 33.982" stroke="black" stroke-linecap="round"/>
<path d="M17.2404 26.7666C17.2404 27.5478 17.2404 29.8915 17.2404 29.1103C17.2404 28.6997 16.9935 26.7751 17.4192 27.8391" stroke="black" stroke-linecap="round"/>
<path d="M22.2456 26.7666C22.2456 27.2135 22.2456 27.6604 22.2456 28.1073C22.2456 28.5897 22.2456 27.2279 22.2456 27.0447C22.2456 25.7087 22.4244 27.919 22.4244 28.3754" stroke="black" stroke-linecap="round"/>
</svg>
