<svg width="40" height="40" viewBox="0 0 40 40" fill="none" xmlns="http://www.w3.org/2000/svg">
<path d="M13.3546 39.1009C13.3013 38.6211 12.0862 38.1169 11.7855 37.6311C11.166 36.6304 10.6861 35.775 10.4547 34.5922C10.0002 32.2692 9.72064 29.8432 11.279 27.9385C14.3375 24.2004 20.1562 23.7278 24.656 23.7278C26.549 23.7278 27.8369 24.1138 29.403 25.1578C30.9788 26.2084 32.1004 27.3538 32.2929 29.2792C32.4933 31.2836 32.3422 33.4863 31.5183 35.3172C31.0202 36.424 30.3107 37.8754 29.4427 38.7434" stroke="black" stroke-linecap="round"/>
<path d="M18.181 29.2692H24.08" stroke="black" stroke-linecap="round"/>
<path d="M18.0022 29.6268C17.2341 29.7228 18.5022 31.3346 18.8066 31.5037C19.5787 31.9327 20.8099 31.4397 21.1801 30.6993C21.6848 29.6899 22.2335 31.6146 22.7492 31.7619C23.6681 32.0245 24.2587 30.7014 24.2587 29.9843" stroke="black" stroke-linecap="round"/>
<path d="M19.7898 35.347C20.2478 35.7134 21.3004 34.632 21.9349 34.632C22.3187 34.632 22.8287 35.3178 22.8287 35.7045" stroke="black" stroke-linecap="round"/>
</svg>
