<svg width="40" height="40" viewBox="0 0 40 40" fill="none" xmlns="http://www.w3.org/2000/svg">
<path d="M6.95117 38.4209C6.95117 32.0648 7.16525 25.7243 7.16525 19.3677C7.16525 17.802 10.2045 18.7433 11.3279 18.8325C13.9368 19.0395 16.5605 19.1536 19.1776 19.1536C23.1635 19.1536 27.4398 19.5933 31.3802 18.9871C32.4933 18.8158 32.4011 19.036 32.2603 19.9861C31.9713 21.9368 32.0976 24.2747 32.3198 26.2301C32.5575 28.3223 32.855 30.4365 32.855 32.5336C32.855 34.8398 32.6409 37.3042 32.6409 39.4913" stroke="black" stroke-linecap="round"/>
<path d="M11.875 24.5056C11.4938 25.3159 11.2989 26.6464 12.3984 26.6464C12.8 26.6464 15.0384 26.8387 15.0863 26.4323C15.149 25.8991 15.3285 24.7197 14.6581 24.7197C13.8018 24.7197 12.9454 24.7197 12.0891 24.7197" stroke="black" stroke-linecap="round"/>
<path d="M21.7227 24.7197C20.1393 26.5011 24.3876 26.2572 24.4939 25.8852C24.6518 25.3324 25.0568 24.5056 24.1966 24.5056C23.586 24.5056 22.9755 24.5056 22.365 24.5056" stroke="black" stroke-linecap="round"/>
<path d="M14.6581 31.5703C14.6581 32.4045 14.8722 33.111 14.8722 33.9252" stroke="black" stroke-linecap="round"/>
<path d="M15.5144 31.1422C17.9052 31.1422 20.283 31.3562 22.6623 31.3562C23.4495 31.3562 23.3633 31.5152 23.1142 32.2126C22.9984 32.5368 23.1595 33.2896 22.9002 33.497C21.9435 34.2624 20.0993 33.9252 18.7256 33.9252C17.2768 33.9252 15.8768 34.1393 14.444 34.1393" stroke="black" stroke-linecap="round"/>
<path d="M17.4411 31.7844C17.4411 32.4936 17.2271 33.1884 17.2271 33.9252" stroke="black" stroke-linecap="round"/>
<path d="M19.796 32.4266C19.796 32.9994 19.8229 33.4431 19.5819 33.9252" stroke="black" stroke-linecap="round"/>
</svg>
