<svg width="40" height="40" viewBox="0 0 40 40" fill="none" xmlns="http://www.w3.org/2000/svg">
<g clip-path="url(#clip0_102_82)">
<path d="M12.7944 39.6195C12.7944 39.2815 12.6272 39.1365 12.4685 38.8455C12.1124 38.1927 12.2698 37.3777 12.2342 36.6662C12.1345 34.6721 12.0762 32.6686 11.9185 30.678C11.7209 28.1827 11.8778 25.6269 11.8778 23.1215" stroke="black" stroke-linecap="round"/>
<path d="M28.5592 23.3048C28.5592 28.618 28.3759 33.9272 28.3759 39.2529" stroke="black" stroke-linecap="round"/>
<path d="M11.3279 23.1215C11.3793 23.5329 15.789 23.33 16.4199 23.3048C17.1026 23.2775 17.542 20.5563 17.7438 20.0459C17.9222 19.5947 18.2846 17.6425 18.9251 17.6425C19.4689 17.6425 20.3077 21.067 20.5749 21.5633C21.0446 22.4356 21.1458 22.9382 22.2349 22.9382C23.1515 22.9382 24.068 22.9382 24.9846 22.9382C25.8616 22.9382 26.4489 23.3048 27.276 23.3048" stroke="black" stroke-linecap="round"/>
<path d="M28.5591 23.3048C28.1564 23.627 27.4062 23.4881 26.9093 23.4881" stroke="black" stroke-linecap="round"/>
<path d="M15.1774 27.3376C15.2658 27.6029 15.986 27.8862 16.2365 28.1116C16.5595 28.4024 16.8479 28.728 17.1938 28.9875" stroke="black" stroke-linecap="round"/>
<path d="M21.7766 29.1707C22.9199 29.1707 23.2848 28.5083 24.1597 28.0709" stroke="black" stroke-linecap="round"/>
<path d="M18.4346 33.4654C18.9081 33.4375 20.2338 32.6906 20.4514 32.2552" stroke="black" stroke-linecap="round"/>
</g>
<defs>
<clipPath id="clip0_102_82">
<rect width="40" height="40" fill="white"/>
</clipPath>
</defs>
</svg>
