<svg width="40" height="40" viewBox="0 0 40 40" fill="none" xmlns="http://www.w3.org/2000/svg">
<path d="M12.9457 38.2503C12.159 37.3652 11.6714 35.7071 11.3782 34.5927C10.9671 33.0307 10.7064 31.4729 10.7064 29.8569C10.7064 27.2669 11.9977 25.5604 13.4682 23.5452C14.3019 22.4028 15.281 21.5654 16.454 20.7833C17.5296 20.0663 18.6822 19.2396 19.8877 18.7679C21.889 17.9848 23.7658 17.6189 25.934 17.6482C27.4857 17.6692 28.8907 18.1884 30.2717 18.8426C31.4569 19.404 32.5254 19.8477 33.3985 20.8663C34.2101 21.8132 34.1371 23.1667 34.3606 24.3497C34.8405 26.8903 34.345 28.8257 33.4317 31.2005C32.6367 33.2674 31.7009 35.2299 30.6283 37.1721C30.2467 37.8632 29.7144 38.4526 29.3677 39.146" stroke="black" stroke-linecap="round"/>
<path d="M17.2751 28.845C17.5873 28.806 17.4309 27.1246 17.5074 26.8296C17.7186 26.0149 17.9675 25.1481 18.768 24.7478C20.1046 24.0795 20.8581 27.3816 20.8581 28.2478" stroke="black" stroke-linecap="round"/>
<path d="M23.2468 28.5464C23.3714 27.3001 24.1418 25.9647 24.7397 24.8971C25.1309 24.1985 25.628 23.9184 26.3819 23.9184C28.2032 23.9184 27.5198 27.9295 27.8748 28.9943" stroke="black" stroke-linecap="round"/>
<path d="M18.1709 33.473C19.2284 34.0951 19.6892 35.3477 20.7669 35.928C21.8325 36.5018 24.1778 34.3452 25.0383 33.7716" stroke="black" stroke-linecap="round"/>
</svg>
