<svg width="40" height="40" viewBox="0 0 40 40" fill="none" xmlns="http://www.w3.org/2000/svg">
<g clip-path="url(#clip0_102_93)">
<path d="M14.2552 39.7046C14.2552 36.3399 14.0398 32.9348 14.0398 29.5431C14.0398 27.0065 14.4214 24.5428 14.9973 22.0745C15.2034 21.1912 15.2156 20.1787 15.5957 19.3576C15.9476 18.5976 16.401 17.7887 16.6131 16.9758C17.1179 15.0409 18.2668 12.0439 20.6227 11.913C21.7549 11.8501 22.7112 11.4821 23.9021 11.4821C24.708 11.4821 25.5139 11.4821 26.3198 11.4821C27.8579 11.4821 29.3474 12.8069 29.8746 14.2828C30.067 14.8217 31.1212 15.8499 30.6047 16.3295C29.7033 17.1665 27.8821 18.0134 28.4742 19.3456C28.8348 20.157 30.5752 20.5771 30.6286 21.512C30.7916 24.3654 30.9143 27.7064 30.5807 30.5604C30.2251 33.603 29.336 36.6782 29.336 39.7046" stroke="black" stroke-linecap="round"/>
<path d="M16.8405 23.3313C16.8405 21.7729 18.5295 20.0997 20.0721 20.0997" stroke="black" stroke-linecap="round"/>
<path d="M26.9662 24.4084C27.7141 24.3617 26.8661 22.7194 26.7388 22.1463C26.5873 21.4646 25.5835 20.8086 25.0272 20.5305" stroke="black" stroke-linecap="round"/>
<path d="M18.3486 30.0098H23.5191" stroke="black" stroke-linecap="round"/>
<path d="M22.4419 30.6562C22.4419 31.523 22.1802 32.3956 22.011 33.2415" stroke="black" stroke-linecap="round"/>
</g>
<defs>
<clipPath id="clip0_102_93">
<rect width="40" height="40" fill="white"/>
</clipPath>
</defs>
</svg>
