<svg width="40" height="40" viewBox="0 0 40 40" fill="none" xmlns="http://www.w3.org/2000/svg">
<path d="M20.4034 20.0135C16.6042 20.0135 12.4346 20.8403 11.1162 24.8616C10.2696 27.4436 10.3321 30.6732 12.0413 32.8938C14.5253 36.1208 19.283 36.6377 23.0282 35.8843C26.7204 35.1417 30.1805 33.0719 30.7736 29.1358C31.0694 27.1729 30.9715 24.3891 29.3966 22.9539C28.3538 22.0036 27.0582 21.601 25.7678 21.118C24.1873 20.5263 22.7231 19.7234 21.0561 19.3824C19.6374 19.0923 18.2353 18.8517 16.7889 18.8517" stroke="black" stroke-linecap="round"/>
<path d="M13.8199 35.6333C13.3913 35.6869 13.1778 37.0341 13.0167 37.3688C12.8061 37.8062 12.6657 38.3327 12.3999 38.7314" stroke="black" stroke-linecap="round"/>
<path d="M28.1488 34.6006C29.1873 34.7894 29.6979 36.7457 29.6979 37.6342C29.6979 38.1718 29.9561 38.5967 29.9561 39.1187" stroke="black" stroke-linecap="round"/>
<path d="M21.6943 24.5317C23.0378 24.5317 24.3813 24.5317 25.7248 24.5317C26.0285 24.5317 26.752 24.3499 26.7288 24.7898C26.7063 25.217 26.2246 25.7078 26.0188 26.0736C24.812 28.219 21.6825 26.0689 20.5325 24.9189" stroke="black" stroke-linecap="round"/>
<path d="M13.3036 25.048C14.2741 25.048 15.2447 25.048 16.2153 25.048C16.6432 25.048 17.0711 25.048 17.499 25.048C18.0988 25.048 17.5989 25.7375 17.4273 26.0807C17.2343 26.4667 16.949 26.9172 16.6599 27.2425C16.3057 27.641 15.8568 27.5007 15.3116 27.5007C14.4709 27.5007 14.0989 27.0621 13.4327 26.597C13.1514 26.4007 12.4122 25.8469 12.2709 25.5643" stroke="black" stroke-linecap="round"/>
<path d="M14.3362 25.5643C14.3362 25.7863 14.4632 26.6751 14.2 26.719C13.7201 26.7989 13.5889 26.0943 13.3035 25.9516" stroke="black" stroke-linecap="round"/>
<path d="M14.7235 26.0807C15.0536 26.2554 15.3843 26.4686 15.6989 26.6688C15.7364 26.6927 16.3933 27.084 16.3156 27.1062C15.98 27.2021 15.0328 26.8808 14.7235 26.7261" stroke="black" stroke-linecap="round"/>
<path d="M21.9525 25.3062C22.4577 25.3567 22.8971 25.8014 23.3725 25.9373C23.5932 26.0003 23.9201 26.0073 24.0466 26.2098C24.1115 26.3136 24.5455 26.6456 24.0825 26.3962C23.7856 26.2364 23.4867 26.0523 23.2434 25.8225C22.995 25.5879 22.0425 25.0202 23.0856 25.4066C23.5824 25.5906 23.8327 26.1172 24.2761 26.3389" stroke="black" stroke-linecap="round"/>
<path d="M17.9508 30.857C17.6283 30.8167 18.803 30.2022 18.9261 30.147C19.4905 29.894 20.1019 29.4945 20.6617 29.3079" stroke="black" stroke-linecap="round"/>
</svg>
