<svg width="40" height="40" viewBox="0 0 40 40" fill="none" xmlns="http://www.w3.org/2000/svg">
<g clip-path="url(#clip0_102_95)">
<path d="M16.7174 23.0679C16.7174 23.5496 16.594 24.1366 16.9581 24.4805C17.0871 24.6024 17.6629 24.6698 17.7742 24.4805C17.9054 24.2575 18.0358 23.7032 18.0358 23.4446C18.0358 23.0537 17.9395 23.0679 17.565 23.0679" stroke="black" stroke-linecap="round"/>
<path d="M24.6278 22.8796C24.5095 22.8944 24.3345 23.7204 24.3453 23.9155C24.361 24.1971 24.9717 24.629 25.24 24.5694C25.8237 24.4397 26.0955 22.7854 25.2871 22.7854" stroke="black" stroke-linecap="round"/>
<path d="M19.0717 31.2609C19.9332 31.2609 20.7947 31.2609 21.6562 31.2609C22.075 31.2609 21.3216 32.391 20.9551 32.391C20.4446 32.391 20.1076 30.7832 20.1076 32.1503C20.1076 33.575 19.4221 31.5303 19.0717 31.3551" stroke="black" stroke-linecap="round"/>
<path d="M20.1075 32.8619C20.2874 32.8619 20.3587 32.7991 20.4842 32.6735" stroke="black" stroke-linecap="round"/>
<path d="M8.41309 38.6542C8.72695 41.1651 8.62852 33.5964 8.62852 31.0659C8.62852 28.6529 8.75043 26.3503 9.38256 24.0163C9.9376 21.9669 11.0408 20.149 11.7644 18.1755C13.4279 13.6385 19.66 10.8625 24.2479 10.8625C26.523 10.8625 28.2643 10.7842 30.1724 12.2748C31.4117 13.2431 32.107 14.6521 32.7098 16.0809C33.3644 17.6324 34.0396 19.6037 34.3855 21.2515C34.7647 23.0586 34.4812 25.1849 34.4812 27.0205C34.4812 29.4836 34.6966 31.9389 34.6966 34.3933C34.6966 35.3057 34.2526 37.7357 34.8403 38.5584C35.2105 39.0767 36.0527 39.4207 35.5584 40.1622" stroke="black" stroke-linecap="round"/>
</g>
<defs>
<clipPath id="clip0_102_95">
<rect width="40" height="40" fill="white"/>
</clipPath>
</defs>
</svg>
