<svg width="40" height="40" viewBox="0 0 40 40" fill="none" xmlns="http://www.w3.org/2000/svg">
<path d="M8.16104 39.373C8.16104 35.5854 7.89448 31.6716 8.92383 27.9898C10.1409 23.6365 11.8482 19.5502 15.7051 16.8329C18.3238 14.9879 20.9537 14.7537 24.0707 14.7792C27.0251 14.8034 30.2976 16.0297 32.0339 18.5345C35.1211 22.9882 35.0935 29.4735 34.5738 34.6705C34.5234 35.1742 34.5654 35.6987 34.5654 36.2044C34.5654 36.7003 34.2636 37.0807 34.2636 37.5624C34.2636 37.9599 34.1823 38.8914 33.9618 39.2221" stroke="black" stroke-linecap="round"/>
<path d="M15.856 21.2671C14.2507 21.4455 13.5928 23.7383 13.5928 25.0727C13.5928 26.0479 14.7841 26.9799 15.7386 27.0006C17.0954 27.0301 18.3415 27.0433 19.5442 26.3216C20.6605 25.6519 21.266 23.4113 20.3908 22.3903C19.519 21.3732 17.1359 20.9653 15.856 20.9653" stroke="black" stroke-linecap="round"/>
<path d="M27.1722 21.2671C26.5102 21.3019 24.852 22.1521 24.5401 22.7759C24.2632 23.3297 24.1545 23.6387 24.1545 24.2931C24.1545 26.3869 26.3196 27.5245 28.2619 27.118C29.3953 26.8807 30.9507 24.326 30.3156 23.1615C30.1074 22.7799 29.1453 22.913 28.7816 22.7675C28.6112 22.6994 28.611 22.5494 28.5217 22.4155C28.4255 22.2711 28.0465 22.2295 27.8931 22.1724C27.1145 21.8827 26.1817 22.0215 25.3616 22.0215" stroke="black" stroke-linecap="round"/>
<path d="M15.5542 23.5303C15.1942 23.5753 15.8595 24.3586 15.7386 24.2512C15.6963 24.2136 15.5828 23.8992 15.5542 23.8992C15.4564 23.8992 15.5542 24.2903 15.5542 24.1925C15.5542 24.0886 15.5081 23.8712 15.6464 23.8405C15.7657 23.814 16.0069 24.0297 16.0069 23.9075C16.0069 23.7649 16.0609 24.2112 15.9901 24.335C15.8638 24.5561 15.6684 23.9424 15.7051 23.8321" stroke="black" stroke-linecap="round"/>
<path d="M28.0775 24.4357C27.5808 24.653 27.7669 24.0349 28.002 24.2177C28.3065 24.4545 28.1745 24.6135 28.5301 24.4357" stroke="black" stroke-linecap="round"/>
<path d="M20.0807 32.1306C18.7806 32.1306 19.1019 33.3035 20.2987 33.3377C21.2214 33.3641 23.0716 33.6662 23.7773 32.9605C25.2463 31.4915 20.7131 31.3589 19.9299 31.8289" stroke="black" stroke-linecap="round"/>
</svg>
