<svg width="40" height="40" viewBox="0 0 40 40" fill="none" xmlns="http://www.w3.org/2000/svg">
<path d="M19.1302 21.5298C16.2004 21.5298 13.5588 21.2719 11.0271 22.9729C8.64966 24.5702 4.63152 26.1156 4.35876 29.5251C3.63532 38.5682 16.3281 39.2753 22.5639 38.524C26.0909 38.0991 29.5182 37.2277 32.7322 35.6958C34.5383 34.835 36.3749 33.8878 36.8626 31.7976C37.3677 29.6328 37.4471 25.9277 35.8341 24.217C34.3295 22.6212 31.7062 22.5414 29.6966 22.127C26.9669 21.564 24.3818 21.0941 21.5852 21.0819C20.0315 21.0752 18.4777 21.0819 16.924 21.0819C16.5373 21.0819 16.5109 21.3397 16.443 21.6791" stroke="black" stroke-linecap="round"/>
<path d="M5.69409 26.9042C6.26647 26.9042 6.30434 27.2988 6.65619 27.6507C6.92491 27.9194 7.63329 27.9996 7.78416 28.3391C8.52532 30.0067 10.222 27.0475 11.3671 27.2111C12.1167 27.3182 12.3601 28.5596 12.7771 29.0524C13.371 29.7543 14.2945 28.9101 14.8008 28.5464C15.5241 28.0269 16.4381 27.6507 17.3387 27.6507C18.1971 27.6507 18.3106 28.0553 18.9478 28.4801C20.331 29.4023 22.2902 26.7549 23.6836 26.7549C25.148 26.7549 25.8894 28.2893 27.4324 28.3888C28.6637 28.4683 29.9884 28.4965 31.0569 27.8166C31.5115 27.5272 32.4815 27.0831 33.0142 27.0535C33.9374 27.0022 35.5609 27.9317 36.1493 26.7549" stroke="black" stroke-linecap="round"/>
<path d="M15.0995 30.3379C14.1194 30.3667 12.7108 31.1359 12.7108 32.2455C12.7108 33.5574 13.9078 33.7716 15.0248 33.7716C16.3055 33.7716 16.5924 33.5782 16.5924 32.287C16.5924 31.7122 16.6407 30.7858 15.8459 30.7858" stroke="black" stroke-linecap="round"/>
<path d="M23.609 30.1886C21.6913 30.1886 21.7627 33.5496 23.7251 33.6223C24.7416 33.6599 25.6991 33.0617 25.6991 31.9801C25.6991 30.7948 24.2399 30.5703 23.3104 30.3379" stroke="black" stroke-linecap="round"/>
<path d="M15.2487 32.7266C15.0086 32.7532 14.5714 32.8586 15.0994 32.7266" stroke="black" stroke-linecap="round"/>
<path d="M23.7583 32.5773C23.6109 32.5957 23.538 32.7584 23.4597 32.8759" stroke="black" stroke-linecap="round"/>
<path d="M16.8909 35.2645C18.3793 35.2645 19.8699 35.4138 21.3696 35.4138" stroke="black" stroke-linecap="round"/>
<path d="M17.6373 35.8616C17.6373 36.4595 17.7694 37.8024 18.6077 37.8024C19.6115 37.8024 20.6231 36.9544 20.6231 35.8616" stroke="black" stroke-linecap="round"/>
</svg>
