<svg width="40" height="40" viewBox="0 0 40 40" fill="none" xmlns="http://www.w3.org/2000/svg">
<g clip-path="url(#clip0_102_85)">
<path d="M19.2353 19.8876C19.2353 20.4101 19.2353 20.9326 19.2353 21.4551C19.2353 22.0305 19.1848 20.8305 19.1192 20.6009C19.0525 20.3671 18.7231 19.7257 18.8787 19.9125C19.1522 20.2406 19.2353 20.671 19.2353 21.0819" stroke="black" stroke-linecap="round"/>
<path d="M25.0578 20.0369C25.0578 20.457 25.1664 21.1059 24.8338 21.4385C24.4327 21.8397 24.7592 20.3056 24.7592 19.7383" stroke="black" stroke-linecap="round"/>
<path d="M19.8325 27.0535H24.9084" stroke="black" stroke-linecap="round"/>
<path d="M20.4297 27.2028C20.8188 27.2028 21.3069 27.5865 21.5494 27.8829C21.8581 28.2603 22.3277 28.4168 22.6027 28.7704C23.5853 30.0338 24.9386 27.4416 25.6548 27.2028" stroke="black" stroke-linecap="round"/>
<path d="M13.1145 30.3379C13.4439 30.3791 11.3623 32.2183 11.1156 32.4114C10.5421 32.8602 10.2928 33.5129 9.68079 33.9209" stroke="black" stroke-linecap="round"/>
<path d="M30.88 29.4421C31.8787 30.3298 33.2536 31.0543 33.8658 32.2787" stroke="black" stroke-linecap="round"/>
<path d="M15.5032 40.0418C15.5032 39.3027 15.3938 38.7277 15.2046 38.0181C14.9014 36.8812 14.5626 35.7443 14.2425 34.601C13.6005 32.308 13.5624 29.8964 13.5624 27.5346C13.5624 26.4439 13.4283 25.2552 13.7946 24.2087C14.007 23.602 14.0739 22.9888 14.1927 22.3592C14.2881 21.8536 14.6268 21.486 14.7567 20.999C15.0506 19.897 16.0427 19.0869 16.3657 18.0297C16.6411 17.1284 17.0646 16.8822 17.6762 16.3046C20.2283 13.8943 24.7325 15.3192 27.3303 17.0511C28.2335 17.6532 28.5141 17.899 28.9393 18.9089C29.7029 20.7224 29.9031 22.6433 30.059 24.6068C30.4544 29.5894 30.5815 34.5953 30.5815 39.5939" stroke="black" stroke-linecap="round"/>
</g>
<defs>
<clipPath id="clip0_102_85">
<rect width="40" height="40" fill="white"/>
</clipPath>
</defs>
</svg>
