<svg width="40" height="40" viewBox="0 0 40 40" fill="none" xmlns="http://www.w3.org/2000/svg">
<path d="M13.2223 32.428C13.2918 31.7333 13.959 30.741 14.3503 30.1886C14.6495 29.7661 15.0291 29.4044 15.3455 28.9943C15.6249 28.6321 15.9258 28.0477 16.2744 27.7668C17.8365 26.5085 19.9102 25.5606 21.9558 25.5606C22.6227 25.5606 23.5092 25.3921 24.0541 25.8592C24.7088 26.4203 25.6948 26.6672 26.1442 27.4433C26.9934 28.9102 28.3006 30.6624 28.3006 32.428" stroke="black" stroke-linecap="round"/>
<path d="M13.8193 30.0393C14.1381 29.6294 11.5289 29.7407 11.2482 29.7407C9.60558 29.7407 7.58849 29.4187 5.98989 29.7739C3.77517 30.2661 3.51831 32.5934 3.51831 34.518C3.51831 37.5548 8.48089 38.6629 10.734 38.6981C14.373 38.755 18.0176 38.6981 21.6571 38.6981C24.397 38.6981 27.1103 38.5489 29.8598 38.5489C30.4106 38.5489 31.0514 38.6406 31.5932 38.5323C32.0758 38.4358 32.5505 38.1027 33.0114 37.9351C33.822 37.6404 34.6194 36.2832 35.201 35.6792C35.9518 34.8995 37.178 31.8015 35.848 31.076C33.3462 29.7114 30.2418 30.1886 27.4048 30.1886" stroke="black" stroke-linecap="round"/>
<path d="M13.3715 33.473C12.8104 33.5432 13.9795 34.2978 14.0434 34.3688C14.3622 34.723 15.3362 34.6673 15.7602 34.6673C17.7507 34.6673 19.7413 34.6673 21.7318 34.6673C22.4008 34.6673 23.0699 34.6673 23.7389 34.6673C24.3528 34.6673 24.8031 34.1918 25.3148 33.9209C25.6837 33.7256 26.4531 33.6166 26.6584 33.2574C26.8382 32.9427 27.2562 32.6266 27.5541 32.428" stroke="black" stroke-linecap="round"/>
<path d="M19.1938 29.5914C18.6566 29.6511 18.4474 30.1484 18.4474 30.6365" stroke="black" stroke-linecap="round"/>
<path d="M22.0304 29.5914C22.7228 29.5914 22.825 30.285 23.0754 30.7858" stroke="black" stroke-linecap="round"/>
</svg>
