<svg width="40" height="40" viewBox="0 0 40 40" fill="none" xmlns="http://www.w3.org/2000/svg">
<g clip-path="url(#clip0_102_91)">
<path d="M11.6442 24.8388C11.2944 21.3411 11.2231 17.4444 13.5791 14.5499C16.0265 11.5431 19.5608 10.9078 23.3102 10.9078C24.8124 10.9078 26.2607 10.9882 27.2937 12.2509C28.1236 13.2652 28.7234 14.9884 28.8644 16.2571C28.938 16.9198 29.2627 17.4037 29.2627 18.0896C29.2627 18.8293 29.2627 19.5691 29.2627 20.3089C29.2627 20.9004 29.3119 21.4972 29.1603 22.0731C28.9652 22.8143 28.5914 23.4837 28.4433 24.2242" stroke="black" stroke-linecap="round"/>
<path d="M11.6442 25.8631H27.6238" stroke="black" stroke-linecap="round"/>
<path d="M11.8491 21.9706C11.8695 21.9774 9.63664 26.3371 9.59554 26.933C9.54509 27.6645 9.0341 28.2969 8.8216 28.9816C8.56186 29.8186 8.57121 30.9067 8.57121 31.7929C8.57121 33.9505 8.77608 36.0004 8.77608 38.1551" stroke="black" stroke-linecap="round"/>
<path d="M13.8977 24.2242C13.9728 25.0504 14.55 25.6453 15.0814 26.2273C15.5328 26.7217 15.7849 27.7537 15.9236 28.4126C16.2485 29.9557 16.3492 31.508 16.7203 33.0334C17.1089 34.6308 16.7658 36.7003 16.7658 38.36" stroke="black" stroke-linecap="round"/>
<path d="M25.1654 23.8145C25.1206 24.1731 24.7821 24.4782 24.6418 24.8388C24.3842 25.5013 24.16 26.1848 23.8907 26.8419C23.2692 28.3583 22.8186 29.8312 22.7184 31.4856C22.5597 34.1045 22.2751 37.452 22.9119 39.9989" stroke="black" stroke-linecap="round"/>
<path d="M27.8286 23.4047C27.8286 25.1339 28.4891 26.4605 28.8416 28.1053C29.1949 29.7544 29.6204 31.4798 29.8318 33.1473C30.1008 35.2698 30.0821 37.4472 30.0821 39.5892" stroke="black" stroke-linecap="round"/>
<path d="M24.5508 15.21C25.6067 15.21 26.5821 15.4149 27.6238 15.4149" stroke="black" stroke-linecap="round"/>
<path d="M24.5508 15.21C24.5508 15.8914 24.2212 17.9165 24.9605 18.1806C26.0287 18.5621 27.1251 18.4879 28.2384 18.4879" stroke="black" stroke-linecap="round"/>
</g>
<defs>
<clipPath id="clip0_102_91">
<rect width="40" height="40" fill="white"/>
</clipPath>
</defs>
</svg>
