<svg width="40" height="40" viewBox="0 0 40 40" fill="none" xmlns="http://www.w3.org/2000/svg">
<path d="M5.45349 38.845C5.45349 35.1657 5.47482 31.6906 7.50442 28.4287C9.03927 25.962 10.6527 23.5433 12.1656 21.0578C12.5306 20.4582 12.7388 19.5846 13.334 19.1561C16.3278 17.0006 19.8932 16.8595 23.3525 17.3537C25.9659 17.7271 28.0683 20.3682 29.7414 22.1889C31.2395 23.8192 32.0783 26.9538 32.0783 29.1124C32.0783 32.3887 32.302 35.6765 32.302 38.845" stroke="black" stroke-linecap="round"/>
<path d="M14.403 24.5258C15.1464 24.6084 17.0306 26.8974 17.5229 26.6513C17.7341 26.5456 17.25 27.0389 17.0878 27.2106C16.5553 27.7744 15.8406 27.7131 15.0991 27.6457C12.9951 27.4544 13.7972 25.961 14.403 24.7495" stroke="black" stroke-linecap="round"/>
<path d="M20.6676 26.7632C21.6117 26.6688 22.347 25.7849 23.1287 25.371C23.699 25.0691 23.7999 26.7659 23.7999 27.3225C23.7999 29.1758 21.1737 28.7288 20.6676 27.2106" stroke="black" stroke-linecap="round"/>
<path d="M14.8405 34.4267C15.692 34.2719 16.8004 32.3022 17.6927 32.6492C18.4776 32.9544 19.2171 33.6499 19.9732 34.0478C20.5996 34.3775 21.1972 34.7788 21.7852 35.1708" stroke="black" stroke-linecap="round"/>
</svg>
