<svg width="40" height="40" viewBox="0 0 40 40" fill="none" xmlns="http://www.w3.org/2000/svg">
<g clip-path="url(#clip0_102_92)">
<path d="M30.7675 20.7414C28.8155 20.7414 26.7352 20.5221 24.8263 20.9463C24.2348 21.0778 22.622 21.193 22.2086 21.6064C21.8832 21.9319 22.1631 23.5926 22.1631 24.0307C22.1631 24.5611 22.0584 25.2383 22.1745 25.7607C22.3724 26.6513 24.6255 26.2728 25.2361 26.2728C26.875 26.2728 28.5139 26.2728 30.1529 26.2728" stroke="black" stroke-linecap="round"/>
<path d="M11.51 23.1999C9.86338 23.1999 8.09763 23.059 6.49081 23.4161C5.29423 23.682 6.79811 28.7908 6.79811 29.6532C6.79811 30.3505 7.1283 31.4823 7.6631 31.9636C7.93831 32.2113 9.2913 32.0091 9.62072 32.0091C10.1048 32.0091 10.4206 32.214 10.8954 32.214" stroke="black" stroke-linecap="round"/>
<path d="M8.23214 23.4047C7.39035 21.7211 7.82241 19.352 7.82241 17.5091C7.82241 16.6745 7.82241 15.8398 7.82241 15.0052" stroke="black" stroke-linecap="round"/>
<path d="M7.82235 15.2101C6.8747 14.2624 6.4797 12.9912 5.77368 11.9322" stroke="black" stroke-linecap="round"/>
<path d="M7.41266 16.2344C6.40653 16.2344 5.75483 17.0538 4.74939 17.0538" stroke="black" stroke-linecap="round"/>
<path d="M17.656 29.5507C17.656 30.6676 17.8388 33.4432 19.4088 33.4432C20.9469 33.4432 20.6593 30.782 21.3436 29.7556" stroke="black" stroke-linecap="round"/>
<path d="M13.9684 39.5892C13.9143 39.1567 13.2622 38.287 12.9441 37.9502C12.0006 36.9513 11.9446 35.3223 11.6011 34.0464C10.7461 30.8708 11.3051 27.02 11.3051 23.7234C11.3051 22.1134 12.2352 20.3938 13.1945 19.1025C14.089 17.8983 14.6274 16.7152 16.0284 15.9271C18.2235 14.6924 20.542 14.5954 22.9825 14.5954C24.4722 14.5954 28.5708 14.0719 29.322 15.8246C29.5209 16.2887 30.0536 16.3472 30.3577 16.8035C30.6691 17.2705 30.814 17.7843 31.0634 18.283C31.7922 19.7406 31.3821 21.938 31.3821 23.4958C31.3821 26.9613 30.8513 30.3755 30.0504 33.7391C29.7182 35.1346 29.3297 36.6175 29.1399 38.0413C29.0235 38.9147 28.9555 39.7622 28.3091 40.4086" stroke="black" stroke-linecap="round"/>
</g>
<defs>
<clipPath id="clip0_102_92">
<rect width="40" height="40" fill="white"/>
</clipPath>
</defs>
</svg>
