<svg width="40" height="40" viewBox="0 0 40 40" fill="none" xmlns="http://www.w3.org/2000/svg">
<g clip-path="url(#clip0_102_65)">
<path d="M7.22154 39.9478C7.22154 39.4912 7.22903 39.0339 7.22154 38.5774C7.20768 37.7314 6.69183 37.3826 6.53631 36.6309C6.17229 34.8715 6.70737 32.4881 7.04279 30.7518C7.32448 29.2936 7.71163 27.8244 7.93657 26.3623C8.1156 25.1986 8.70914 24.2774 8.96939 23.1844C9.61362 20.4786 10.5159 18.4007 11.7898 15.9944C12.5052 14.6431 12.8323 14.7974 13.6568 16.0341C14.3616 17.0913 14.5085 18.6231 15.2656 19.5695C15.9543 20.4304 16.1071 21.7985 16.8744 22.6084C17.2525 23.0075 17.4812 23.5528 17.8675 23.9391C18.3007 24.3723 18.8372 23.2647 19.0195 23.0056C19.8871 21.7728 20.9544 20.9206 22.0584 19.927C22.8822 19.1855 23.9233 18.1958 24.9185 17.6429C25.6926 17.2129 26.5234 16.4997 27.1033 15.8553C27.2692 15.671 27.6756 15.2244 27.7687 15.7362C27.9453 16.7073 28.2503 17.5331 28.3546 18.5367C28.4861 19.8024 28.6724 21.0776 28.6724 22.3502C28.6724 23.511 28.5874 24.6886 28.8512 25.826C29.2394 27.5002 29.3475 29.5113 29.3874 31.2284C29.4099 32.1959 29.8335 33.0361 29.9138 33.9595C29.9821 34.7458 30.1313 35.7332 30.46 36.4521C30.8688 37.3465 30.6387 38.6224 30.6387 39.5903" stroke="black" stroke-linecap="round"/>
<path d="M12.2268 26.0048C12.2268 27.0511 12.2101 29.2224 13.5674 29.2224C15.0356 29.2224 15.2656 26.1711 15.2656 25.2004C15.2656 24.7319 14.9473 24.4333 14.5506 24.257C13.8325 23.9378 13.3591 24.5897 12.9418 25.0316C12.2058 25.8108 12.2382 27.2752 12.763 28.1499" stroke="black" stroke-linecap="round"/>
</g>
<defs>
<clipPath id="clip0_102_65">
<rect width="40" height="40" fill="white"/>
</clipPath>
</defs>
</svg>
