<svg width="40" height="40" viewBox="0 0 40 40" fill="none" xmlns="http://www.w3.org/2000/svg">
<g clip-path="url(#clip0_102_98)">
<path d="M11.8959 39.0712C11.6092 39.0074 11.5825 38.6047 11.5019 38.3754C11.175 37.4448 10.7564 36.6507 10.538 35.6679C10.1112 33.7472 9.66807 31.8695 9.51534 29.9009C9.37389 28.0778 9.59789 26.4108 10.0183 24.6452C10.2858 23.5215 10.7496 21.6013 11.745 20.848C13.6036 19.4415 16.2685 18.7123 18.5012 18.2495C19.8851 17.9625 21.2639 17.7968 22.6756 17.7968C24.1104 17.7968 25.6492 17.6201 27.0679 17.8303C28.5902 18.0559 29.2734 18.8554 29.8173 20.3618C30.9393 23.4688 30.7002 27.053 30.8735 30.3032C31.0064 32.7957 30.4681 35.546 29.0965 37.6797C28.6304 38.4047 28.2435 38.9992 27.8894 39.8256" stroke="black" stroke-linecap="round"/>
<path d="M11.1415 20.5127C10.5615 20.4402 11.3682 18.8981 11.4433 18.7105C11.9119 17.5389 12.8217 16.4352 13.7065 15.5503C14.5542 14.7027 16.3561 14.2974 17.4702 13.9493C18.4669 13.6378 19.5864 13.2703 20.6387 13.2703C22.3783 13.2703 23.9111 13.1391 25.4082 14.0918C25.7022 14.2789 26.0831 14.2448 26.3806 14.3936C26.6849 14.5457 26.9926 14.817 27.2859 15.0055C28.0418 15.4914 28.4619 16.1805 28.8115 16.967C29.009 17.4114 29.4126 17.8109 29.6665 18.2494C30.1431 19.0727 31.9436 18.7021 32.7847 18.7021C34.0309 18.7021 35.277 18.7021 36.5232 18.7021C37.1174 18.7021 37.8794 19.1248 37.0261 19.5739C36.1413 20.0395 34.9202 20.3325 33.9247 20.3618C33.007 20.3888 32.1542 20.6636 31.2088 20.6636C30.7059 20.6636 30.2029 20.6636 29.7 20.6636" stroke="black" stroke-linecap="round"/>
<path d="M24.4191 22.9268C23.3354 22.9268 22.4711 23.6812 21.4015 23.6812" stroke="black" stroke-linecap="round"/>
<path d="M13.7065 22.7759C14.3887 23.1371 15.1909 23.5644 15.8188 23.983" stroke="black" stroke-linecap="round"/>
<path d="M9.33096 27.6041C8.41065 27.6041 7.57345 28.6834 6.84979 29.18C5.9729 29.7818 5.41797 30.3001 4.95538 31.2253" stroke="black" stroke-linecap="round"/>
<path d="M31.0579 27.1515C31.9769 27.9684 34.0756 28.8411 34.0756 30.32" stroke="black" stroke-linecap="round"/>
<path d="M5.02354 31.4526C6.6429 31.4526 7.45755 32.032 8.01604 33.7075C8.26861 34.4652 8.41252 35.9525 8.09986 36.7167C7.73387 37.6114 6.40353 37.6388 5.61869 37.6388C4.42427 37.6388 2.04466 37.4717 2.0059 35.7276C1.97994 34.5594 2.00655 33.4536 2.79384 32.5088C3.31971 31.8778 3.9497 31.497 4.5709 31" stroke="black" stroke-linecap="round"/>
<path d="M2.30774 35.9792C2.60105 35.4251 3.17146 35.0876 3.78303 34.9565C4.17639 34.8722 4.65477 34.6212 5.02361 34.6212" stroke="black" stroke-linecap="round"/>
<path d="M4.72186 34.0176C4.72186 34.2834 4.61155 34.8713 4.87274 35.0403C4.9811 35.1104 5.46401 35.5097 5.54332 35.5097C5.82299 35.5097 5.77803 34.7061 5.77803 34.5541C5.77803 34.2058 5.27375 34.3194 5.02362 34.3194" stroke="black" stroke-linecap="round"/>
<path d="M5.92883 34.7721C6.33083 34.4505 6.94948 34.4703 7.43765 34.4703" stroke="black" stroke-linecap="round"/>
</g>
<defs>
<clipPath id="clip0_102_98">
<rect width="40" height="40" fill="white"/>
</clipPath>
</defs>
</svg>
