<svg width="40" height="40" viewBox="0 0 40 40" fill="none" xmlns="http://www.w3.org/2000/svg">
<path d="M12.6131 39.373C11.7603 39.2782 11.571 37.0992 11.4731 36.5565C10.9874 33.8632 10.8025 31.1279 10.8025 28.3921C10.8025 26.9585 10.4009 24.7969 10.9702 23.4549C11.3565 22.5444 11.7488 21.5379 12.2359 20.672C13.0294 19.2615 14.6295 18.3394 16.0164 17.646C17.8325 16.7379 19.5248 16.4389 21.5906 16.4389C23.8407 16.4389 25.8279 16.2963 27.9276 17.1179C30.6558 18.1854 31.5181 21.5794 32.0098 24.1674C32.6845 27.7184 32.7802 31.6477 32.5212 35.274C32.4936 35.6599 32.3296 36.0746 32.1607 36.4224C31.9548 36.8463 32.0113 37.1654 31.8925 37.5959C31.728 38.1921 31.7061 38.7912 31.4734 39.373" stroke="black" stroke-linecap="round"/>
<path d="M10.3499 24.7374C10.9561 24.7374 11.2199 25.1165 11.6995 25.5002C12.5204 26.1569 13.1587 26.8728 14.122 27.3359C16.5805 28.5179 19.2423 28.2077 21.9008 28.2077C24.3694 28.2077 26.3782 26.8977 28.4641 25.7852C29.5486 25.2068 30.9203 24.3347 31.4734 23.2286" stroke="black" stroke-linecap="round"/>
<path d="M17.4141 33.0738C18.6553 33.0738 19.9625 32.3585 21.1777 32.1015C22.568 31.8074 23.9488 31.4929 25.3437 31.2297C26.4399 31.0229 27.5024 30.7691 28.5793 30.5424C29.1288 30.4267 29.7503 30.5088 30.3145 30.5088C31.0098 30.5088 30.8426 32.2073 30.8426 32.6715C30.8426 32.9443 30.8535 33.2203 30.8426 33.4929C30.8283 33.8495 29.6424 33.713 29.3673 33.7612C28.2105 33.9636 27.0306 34.2364 25.897 34.5491C25.578 34.6371 24.6754 34.6153 24.5223 34.9598C24.2339 35.6087 24.7787 36.7927 24.9246 37.4494C25.0843 38.1679 25.4464 38.6564 24.5893 38.6564C24.1387 38.6564 23.3511 39.0041 22.9632 38.7403C22.0714 38.1339 22.4932 36.3705 21.9741 35.4879C21.5194 34.7151 18.554 35.7897 17.8667 35.7897" stroke="black" stroke-linecap="round"/>
<path d="M17.4141 36.0915C17.4141 36.8965 16.5832 37.9058 16.3496 38.7235C16.0362 39.8204 15.6329 36.5473 15.4526 35.4209C15.2943 34.431 15 33.4732 15 32.4703C15 31.7502 15.4978 32.3675 15.8718 32.6212C16.2423 32.8726 16.6089 33.1112 16.9615 33.3756" stroke="black" stroke-linecap="round"/>
<path d="M29.3337 31.8668C30.0382 31.8668 32.804 31.4767 32.804 32.353C32.804 33.2885 32.5156 33.0611 31.6724 32.9314C31.0814 32.8404 30.5369 32.7721 29.9373 32.7721" stroke="black" stroke-linecap="round"/>
<path d="M25.7125 34.8844C25.7125 35.245 25.8634 35.5661 25.8634 35.8651C25.8634 36.4631 25.9334 36.3932 25.2599 36.3932" stroke="black" stroke-linecap="round"/>
<path d="M26.0143 31.2632C25.5435 30.7336 25.2599 29.6841 25.2599 29" stroke="black" stroke-linecap="round"/>
</svg>
