<svg width="40" height="40" viewBox="0 0 40 40" fill="none" xmlns="http://www.w3.org/2000/svg">
<path d="M13.3495 39.2953C12.5047 39.2953 11.9844 38.4685 11.3258 38.1093C10.6399 37.7351 10.3385 37.0001 9.9158 36.3427C9.43739 35.5985 8.85914 33.214 9.40158 32.3616C9.83729 31.6769 11.1206 31.3622 11.8234 31.0843C12.7771 30.7073 13.8165 30.1958 14.8341 30.0393C16.8101 29.7353 18.5657 28.9943 20.6315 28.9943C21.9765 28.9943 23.1148 29.256 24.4218 29.5251C25.727 29.7938 27.6232 29.8526 28.66 30.7857C28.9271 31.0261 29.3083 31.1209 29.5558 31.3829C29.7802 31.6206 29.9505 32.1818 30.128 32.4777C30.4991 33.0961 30.3686 33.8938 30.3686 34.5844C30.3686 35.8473 29.2799 36.8134 28.3449 37.5785C27.737 38.0758 26.909 39.2044 26.1884 39.4446" stroke="black" stroke-linecap="round"/>
<path d="M14.3945 30.0393C14.3484 30.4078 14.247 29.6193 14.2701 29.5002C14.4147 28.7528 15.0229 28.1153 15.4395 27.5014C16.1789 26.4117 17.0603 25.1677 18.0106 24.2502C18.4765 23.8004 19.6341 23.3512 20.25 23.1388C20.9341 22.9029 21.5861 22.8734 22.2986 22.8734C22.7977 22.8734 23.3869 22.7966 23.8661 22.9563C24.7827 23.2618 25.3477 24.567 25.5913 25.4196C26.1483 27.3691 27.3401 29.1222 27.8306 31.0843" stroke="black" stroke-linecap="round"/>
<path d="M26.4871 26.3071H34.698" stroke="black" stroke-linecap="round"/>
<path d="M11.558 37.8024C12.2421 37.8024 12.8641 37.5038 13.5071 37.5038C14.2507 37.5038 14.9944 37.5038 15.7381 37.5038C17.1702 37.5038 18.6023 37.5038 20.0344 37.5038C20.9888 37.5038 27.2335 36.9176 27.2335 38.2503" stroke="black" stroke-linecap="round"/>
<path d="M14.3945 37.9517V38.6982" stroke="black" stroke-linecap="round"/>
<path d="M16.6339 38.101V38.9968" stroke="black" stroke-linecap="round"/>
<path d="M18.8732 38.101V39.146" stroke="black" stroke-linecap="round"/>
<path d="M21.5604 38.101C21.8139 38.1644 21.7097 38.7797 21.7097 38.9968" stroke="black" stroke-linecap="round"/>
<path d="M24.397 37.9517V38.8475" stroke="black" stroke-linecap="round"/>
<path d="M22.0083 24.9634C22.6701 25.1289 21.561 26.1578 22.8128 26.1578C23.043 26.1578 24.0823 26.2816 24.0984 26.0085C24.1177 25.6805 24.2737 24.6649 24.0237 24.6649C23.5012 24.6649 22.9787 24.6649 22.4562 24.6649" stroke="black" stroke-linecap="round"/>
<path d="M25.8899 28.3971C24.8391 28.3971 23.8347 28.2828 23.0533 27.5014" stroke="black" stroke-linecap="round"/>
</svg>
