<svg width="40" height="40" viewBox="0 0 40 40" fill="none" xmlns="http://www.w3.org/2000/svg">
<path d="M17.7645 39.4446C16.3822 39.4446 15.2334 39.4558 13.9493 38.9055C13.0738 38.5302 11.8872 37.9129 11.2787 37.1306C10.7774 36.486 10.1878 35.7296 9.86045 34.9659C9.62028 34.4055 9.38515 33.715 9.02276 33.249C8.75919 32.9102 8.06067 31.8063 8.06067 31.3829C8.06067 30.882 9.81829 31.484 10.0014 31.5654C11.3238 32.1531 13.1671 31.8769 14.447 31.4161C16.0666 30.833 17.6026 30.1886 19.3238 30.1886C19.8105 30.1886 20.3057 29.89 20.8665 29.89C21.3475 29.89 21.8286 29.89 22.3096 29.89C23.3325 29.89 24.3554 29.89 25.3783 29.89C26.1206 29.89 28.3598 30.1054 28.895 30.8189C29.4684 31.5835 29.4092 32.2365 29.4092 33.1744C29.4092 34.264 28.6901 36.2221 27.8002 36.9067C27.153 37.4045 26.2296 38.8474 25.3783 38.8474" stroke="black" stroke-linecap="round"/>
<path d="M22.094 30.0393C19.8457 30.0393 18.2751 26.6188 18.8428 24.6317C19.3582 22.8279 22.5212 22.2762 24.068 22.2762C25.8163 22.2762 27.5386 21.9891 28.6628 23.5867C30.2163 25.7943 28.2427 28.3694 26.722 29.89" stroke="black" stroke-linecap="round"/>
<path d="M28.6627 27.3521C29.4878 27.3521 33.1414 25.9496 33.1414 27.8746C33.1414 28.6033 30.7144 28.6957 30.222 28.6957C29.3539 28.6957 28.4858 28.6957 27.6177 28.6957" stroke="black" stroke-linecap="round"/>
<path d="M24.9305 24.6649C25.3951 24.7113 26.1761 25.2962 26.5727 25.5606" stroke="black" stroke-linecap="round"/>
<path d="M21.1983 32.8759C20.0664 32.8759 19.3767 33.1086 18.3286 33.5062C17.6071 33.7799 17.3091 34.4749 17.9802 35.024C18.652 35.5736 20.2431 35.2645 21.049 35.2645C22.0665 35.2645 22.5591 34.9602 23.4376 34.6673" stroke="black" stroke-linecap="round"/>
</svg>
