<svg width="40" height="40" viewBox="0 0 40 40" fill="none" xmlns="http://www.w3.org/2000/svg">
<path d="M27.782 13.0356C26.7402 13.1398 25.3959 14.7608 24.7187 15.4379C23.6319 16.5248 22.6784 17.4505 21.5029 18.4123C20.3564 19.3503 19.3849 20.4159 18.3506 21.4502C17.6651 22.1357 19.6523 22.9931 20.1174 23.217C21.6454 23.9527 22.71 25.2456 24.2357 25.9752C25.5161 26.5876 26.5645 27.6085 27.6676 28.4666C27.974 28.7049 28.5882 29.4901 28.926 29.5089C30.1883 29.579 29.1108 30.9077 28.7481 31.5172C27.3404 33.8821 25.3975 34.0695 23.079 35.2287C20.5326 36.502 17.7301 37.7455 14.8551 37.7455C12.4132 37.7455 11.4195 36.8482 9.58008 35.3431C7.81911 33.9024 6.55841 32.4633 6.50406 30.0173C6.45093 27.6265 6.20021 24.9175 6.51677 22.5433C6.67167 21.3816 7.11402 20.1814 7.19044 19.0351C7.27518 17.764 8.00778 16.5629 8.10562 15.3235C8.1966 14.1712 8.80009 13.1751 9.58008 12.3492C10.0641 11.8367 10.2037 11.1222 10.8512 10.7985C11.4351 10.5065 11.8968 10.0087 12.4782 9.71805C13.3332 9.29051 14.8243 9.14607 15.783 9.14607C17.3368 9.14607 20.3327 8.57202 21.6173 9.37486C22.6927 10.047 28.2452 12.2208 27.5532 13.9508" stroke="black" stroke-linecap="round"/>
<path d="M15.8847 13.0356C14.5944 13.179 14.0543 15.7981 14.0543 16.8743C14.0543 18.1526 14.5017 18.0691 15.6559 18.0691C17.4643 18.0691 17.9438 16.8994 17.9438 15.3235C17.9438 13.7298 16.7263 13.9508 15.4271 13.9508" stroke="black" stroke-linecap="round"/>
<path d="M16.3423 15.7811V16.2387" stroke="black" stroke-linecap="round"/>
</svg>
