<svg width="40" height="40" viewBox="0 0 40 40" fill="none" xmlns="http://www.w3.org/2000/svg">
<path d="M5.66158 39.3471C4.33554 39.1813 3.76775 34.1868 3.50074 33.195C2.9971 31.3243 3.14483 29.3681 3.14483 27.4497C3.14483 24.5019 4.61894 22.3351 5.99206 19.785C6.58488 18.6841 6.77255 17.3104 7.39026 16.2514C7.57267 15.9387 8.04519 14.8458 8.40713 14.8659C9.04096 14.9012 10.2738 17.9877 10.4663 18.5267C10.619 18.9543 11.903 23.2142 12.8559 22.1747C13.7804 21.1662 14.6345 20.1391 15.4489 19.0351C16.3147 17.8616 17.6224 17.2589 18.7029 16.3404C19.0457 16.0491 21.7477 14.3517 22.084 14.688C22.5536 15.1576 21.0854 18.4542 20.7621 18.9716C20.1501 19.9508 20.4567 21.5815 20.1265 22.6958C19.5919 24.5001 20.8293 24.2466 22.2493 24.2466C23.373 24.2466 24.5082 24.9804 25.4524 25.5049C26.6623 26.1771 27.3762 27.7042 28.3123 28.6954C29.3401 29.7836 29.7559 30.826 30.4859 32.14C31.642 34.221 30.391 37.249 29.4563 39.1183" stroke="black" stroke-linecap="round"/>
<path d="M30.8291 33.856C30.3712 33.9132 31.5915 34.7706 31.7442 35.1143C32.062 35.8294 32.8882 35.9267 32.8882 36.8303C32.8882 37.7176 32.742 37.7455 31.8586 37.7455C31.4017 37.7455 30.5691 37.4543 30.3715 37.0591" stroke="black" stroke-linecap="round"/>
<path d="M7.94952 26.7633C7.10344 26.9748 7.84766 30.4649 8.75031 30.6655C9.55621 30.8446 9.82315 30.7898 9.99597 29.8393C10.1461 29.0135 10.2375 27.824 10.2375 26.9921" stroke="black" stroke-linecap="round"/>
<path d="M14.3558 26.9921C14.3878 27 14.9786 28.4788 15.0295 28.708C15.1678 29.3305 15.6557 29.7909 16.0591 30.3096C17.3479 31.9666 18.128 27.9132 18.4742 27.2209" stroke="black" stroke-linecap="round"/>
<path d="M9.55106 29.0513C9.07671 29.1106 9.51002 29.677 9.27142 29.9156C9.18853 29.9985 8.76532 28.8616 8.91551 29.3309C9.7652 31.9862 8.74412 28.2443 9.77985 29.2801" stroke="black" stroke-linecap="round"/>
<path d="M17.1014 28.5937C17.1014 29.2489 17.0884 29.1367 16.5421 29.2928C16.3061 29.3602 16.415 30.7764 16.415 29.9665" stroke="black" stroke-linecap="round"/>
<path d="M16.415 29.7377C15.5704 29.7377 15.9574 29.4706 15.9574 29.0513" stroke="black" stroke-linecap="round"/>
<path d="M7.94946 26.7633C8.49799 26.2148 9.00301 25.8481 9.77983 25.8481" stroke="black" stroke-linecap="round"/>
<path d="M18.2453 26.7633C17.5285 26.1899 15.9826 26.0769 15.0421 26.0769" stroke="black" stroke-linecap="round"/>
<path d="M15.4998 29.0513H16.6437" stroke="black" stroke-linecap="round"/>
<path d="M11.1526 34.9999H13.2117" stroke="black" stroke-linecap="round"/>
</svg>
