<svg width="40" height="40" viewBox="0 0 40 40" fill="none" xmlns="http://www.w3.org/2000/svg">
<path d="M24.4067 22.5805C20.9629 22.5805 17.5908 22.6327 14.2469 23.5496C12.0578 24.1498 8.46298 24.488 6.68169 26.0817C5.96079 26.7268 5.89331 28.1774 6.18151 29.1141C6.53438 30.2609 6.40034 31.5103 6.40034 32.7091C6.40034 35.0708 2.01546 37.2269 5.83764 38.8363C8.60501 40.0015 15.1498 37.9996 16.5289 35.2412" stroke="black" stroke-linecap="round"/>
<path d="M6.23812 27.3899C4.9627 27.3899 5.70829 24.73 4.32009 25.691C3.84374 26.0208 3.51996 26.024 3.71728 26.6653C3.78704 26.892 4.22584 27.1672 4.4236 27.2803C4.92656 27.5677 5.57081 27.6391 6.01892 27.9379" stroke="black" stroke-linecap="round"/>
<path d="M32.4428 7.46852C32.4324 7.5515 32.2942 7.67907 32.2546 7.74133C32.1524 7.90184 32.1059 8.01682 32.1002 8.20022C32.0931 8.4276 32.024 8.63644 32.024 8.86848C32.024 9.26359 32.1506 9.63702 32.3582 9.97238C32.8269 10.7295 33.8085 10.143 34.1557 9.57058C34.3412 9.26482 34.5286 8.79143 34.5364 8.42862C34.5396 8.27412 34.5407 8.11791 34.5364 7.96337C34.5321 7.81172 34.4312 7.73852 34.3756 7.61233C34.3106 7.46456 34.0005 7.41924 33.8681 7.40085C33.6474 7.37021 33.4343 7.31258 33.2125 7.28666C32.9096 7.25125 32.6357 7.164 32.3286 7.164" stroke="black" stroke-linecap="round"/>
<path d="M32.2905 7.27818C32.2265 7.27818 32.1871 7.26595 32.1383 7.22319C32.0789 7.1712 31.9312 7.20364 31.8528 7.18301C31.7196 7.14795 31.5531 7.12592 31.415 7.12592" stroke="black" stroke-linecap="round"/>
<path d="M32.9538 7.67743C32.8474 7.73064 32.8192 7.89213 32.7838 7.99287C32.7396 8.11841 32.6781 8.25771 32.6563 8.39108C32.6356 8.51734 32.6518 8.65729 32.6518 8.78481C32.6518 9.05435 32.723 9.31448 32.8733 9.53985C32.9472 9.65081 33.0332 9.82048 33.1954 9.73783C33.356 9.65603 33.4768 9.4573 33.5847 9.32173C33.6892 9.19035 33.7758 9.0286 33.8576 8.88325C33.9725 8.67901 33.9806 8.44925 33.9806 8.22217C33.9806 8.15982 33.9646 7.97944 33.88 7.97944C33.6748 7.97944 33.5429 8.28197 33.4896 8.45372C33.4271 8.65501 33.437 8.85843 33.437 9.06669" stroke="black" stroke-linecap="round"/>
<path d="M33.5114 7.87147C33.5114 7.99164 33.4533 8.30437 33.539 8.39007C33.7043 8.55531 33.9296 8.56661 34.1459 8.56661C34.3201 8.56661 34.2945 8.15213 34.2287 8.02043C34.1315 7.82616 33.9433 7.87147 33.7597 7.87147" stroke="white" stroke-width="0.5" stroke-linecap="round"/>
<path d="M33.6604 8.36801C33.6705 8.28697 33.7992 8.31836 33.859 8.31836" stroke="white" stroke-width="0.5" stroke-linecap="round"/>
<path d="M13.8435 37.5309C14.1014 37.3017 14.4299 37.1954 14.6963 36.9774C14.9545 36.7661 15.2989 36.5736 15.6147 36.4608C16.3829 36.1864 17.117 35.9389 17.8861 35.7023C18.894 35.3922 20.0968 35.5383 21.1496 35.5383C21.7034 35.5383 22.4946 35.569 22.9618 35.8663C23.6364 36.2956 24.3484 36.6371 25.061 37.0143C26.2942 37.6672 27.3885 38.8593 28.8575 38.8593C29.5591 38.8593 30.2177 38.9205 30.8501 38.6543C31.1798 38.5155 31.4727 38.329 31.7726 38.1541C31.9745 38.0363 32.4104 37.784 32.5065 37.5678C32.5845 37.3923 32.5274 36.9506 32.4573 36.7929C32.3983 36.6603 32.3654 36.5952 32.2195 36.5141C32.0412 36.4151 32.1316 36.3548 32.0555 36.2025C31.9686 36.0287 31.7072 36.1016 31.6373 35.9442C31.5897 35.8371 31.5448 35.6986 31.4487 35.6162C31.3067 35.4945 31.0576 35.2262 30.887 35.1693C30.67 35.097 30.316 34.9633 30.1531 34.8003C29.8629 34.5101 29.796 34.0631 29.5053 33.7835C29.0784 33.373 29.1937 32.7612 29.1937 32.1805C29.1937 31.6543 29.1645 31.1188 29.1937 30.5938C29.2313 29.9181 29.5627 29.2057 29.5627 28.5274" stroke="black" stroke-linecap="round"/>
<path d="M22.9812 22.7153C23.2505 22.7153 23.4299 22.5749 23.5401 22.3145C23.6747 21.9963 23.8912 21.6602 23.9739 21.3291C24.0954 20.8435 24.2541 20.331 24.4519 19.8694C24.7092 19.2691 24.9534 18.5973 25.0402 17.9465C25.0869 17.5965 25.4043 17.3184 25.43 16.9721C25.4476 16.7339 25.6604 16.3393 25.7609 16.1264C26.0376 15.5405 26.2647 14.9141 26.4926 14.3064C26.7712 13.5633 27.1496 12.851 27.4302 12.1113C27.5537 11.7857 27.7888 11.5072 27.8787 11.1701C27.9637 10.8516 28.1334 10.5237 28.3016 10.2435C28.4821 9.94258 28.5552 9.55395 28.7465 9.23972C28.9324 8.93433 29.2419 8.59581 29.3384 8.258C29.4087 8.01213 29.6543 7.72778 29.7833 7.49322C29.8768 7.32331 29.996 7.10456 30.129 6.96376C30.2685 6.81599 30.4263 6.65527 30.5886 6.53357C30.7606 6.40452 31.0527 6.29357 31.1842 6.14015C31.2222 6.09583 31.5949 5.97414 31.6512 5.97101C31.8532 5.95979 32.059 5.97101 32.2615 5.97101C32.7861 5.97101 33.3106 5.97101 33.8352 5.97101C34.7953 5.97101 35.8919 5.82782 36.8465 5.97469C37.3614 6.0539 37.7182 6.47445 37.9753 6.88287C38.0797 7.04862 38.2541 7.30812 38.2695 7.50793C38.2835 7.69093 38.4141 7.84532 38.5268 7.98224C38.6394 8.11894 38.561 8.26932 38.6298 8.41978C38.9953 9.21924 39.255 10.4155 38.7327 11.2142C38.2401 11.9676 37.3062 12.3149 36.4678 12.604C35.8843 12.8052 35.3308 13.0254 34.7324 13.185C34.1904 13.3295 33.6528 13.3798 33.1881 13.7144C32.6311 14.1155 32.3647 14.7957 32.0189 15.3616C31.719 15.8524 31.453 16.4091 31.1842 16.9243C30.8768 17.5136 30.574 18.0032 30.379 18.6414C30.2777 18.9728 30.0925 19.2897 29.9672 19.6121C29.8601 19.8873 29.8809 20.2393 29.765 20.4945C29.6652 20.7139 29.6926 21.0302 29.6142 21.274C29.5416 21.4999 29.5333 21.879 29.5333 22.1197C29.5333 22.6038 29.5333 23.0879 29.5333 23.572C29.5333 24.3701 29.4438 25.1292 29.537 25.9215C29.645 26.8395 29.5995 27.802 29.5995 28.7379" stroke="black" stroke-width="1.0343" stroke-linecap="round"/>
</svg>
