<svg width="40" height="40" viewBox="0 0 40 40" fill="none" xmlns="http://www.w3.org/2000/svg">
<path d="M20.2037 11.2907C17.0034 11.2907 13.3305 12.0205 10.6907 13.9732C7.95775 15.9948 7.65143 18.8707 7.6853 22.0207C7.7223 25.4616 10.7314 29.6107 13.9942 30.8631C16.4287 31.7975 19.4422 31.8436 21.992 31.484C24.638 31.1109 26.4619 29.4728 28.5493 27.9819C32.5654 25.1132 31.984 18.2437 28.2512 15.3641C25.7523 13.4364 22.948 10.6201 19.533 10.6201" stroke="black" stroke-linecap="round"/>
<path d="M12.8268 31.8566C11.397 31.8566 11.4855 34.1628 11.4855 35.3091C11.4855 35.9984 11.4327 36.7087 11.4855 37.3955C11.5326 38.0077 12.3928 38.8258 12.6032 39.457" stroke="black" stroke-linecap="round"/>
<path d="M28.0276 29.3976C27.8477 29.449 29.1331 32.0875 29.1454 32.5272C29.1728 33.5165 29.4312 34.3542 29.58 35.3215C29.7707 36.5608 29.8195 38.3358 28.9218 39.2334" stroke="black" stroke-linecap="round"/>
<path d="M12.8267 30.7389C12.8015 31.142 12.5397 31.3129 12.3796 31.6331" stroke="black" stroke-linecap="round"/>
<path d="M12.0348 18.9766C12.9706 19.3978 13.9041 19.5487 14.7796 20.1277C15.2376 20.4305 15.7099 20.6001 16.2184 20.7696" stroke="black" stroke-linecap="round"/>
<path d="M19.4059 21.168C19.9249 21.1104 20.4106 20.5413 20.8226 20.2605C21.8552 19.5564 22.8402 18.7935 23.7887 17.9805" stroke="black" stroke-linecap="round"/>
<path d="M13.8277 22.5626C15.722 22.5626 12.973 24.7021 12.8316 23.3594C12.7657 22.7333 12.9381 22.327 13.6285 22.3633C13.9251 22.3789 14.4254 23.0588 14.4254 22.7618" stroke="black" stroke-linecap="round"/>
<path d="M21.3981 22.5626C21.9466 22.5626 22.2339 23.0359 21.5973 22.961C20.8246 22.8701 22.1614 21.1476 22.5713 22.2748C22.8472 23.0336 21.9061 23.3196 21.3096 23.1492C20.9722 23.0528 21.2515 21.0477 21.9958 22.1641" stroke="black" stroke-linecap="round"/>
<path d="M15.6207 27.3439H20.0036" stroke="black" stroke-linecap="round"/>
<path d="M13.691 23.0847C13.6436 23.0088 13.495 23.0091 13.4153 23.0003C13.3161 22.9893 13.3488 23.0977 13.3488 23.1702" stroke="black" stroke-linecap="round"/>
<path d="M11.6535 33.4668C11.5988 33.1934 10.9967 32.8139 10.7596 32.6997C9.8171 32.2459 8.74391 32.1776 7.8355 31.6039C7.31858 31.2774 6.25525 30.7783 6.25525 30.041" stroke="black" stroke-linecap="round"/>
<path d="M29.6132 31.9096C29.6862 32.4936 31.5208 31.4915 31.6952 31.3905C32.5141 30.9164 32.9083 30.3537 33.4542 29.6257" stroke="black" stroke-linecap="round"/>
</svg>
