<svg width="40" height="40" viewBox="0 0 40 40" fill="none" xmlns="http://www.w3.org/2000/svg">
<path d="M6.38416 38.8202C6.38416 36.9521 7.45534 35.1391 7.88001 33.346C8.56158 30.4683 8.61758 26.7528 10.2511 24.2117C11.0192 23.0168 11.2139 21.083 12.5426 20.3448C13.8783 19.6027 16.4723 19.3422 17.9691 19.3422C18.8666 19.3422 19.6606 19.0558 20.5471 19.0558C22.0031 19.0558 23.4308 19.3422 24.8596 19.3422C29.1071 19.3422 30.4452 25.4159 30.4452 28.8584C30.4452 30.8211 30.4452 32.7837 30.4452 34.7464C30.4452 36.1084 31.0404 37.6299 30.4452 38.8202" stroke="black" stroke-linecap="round"/>
<path d="M15.4429 27.7016C15.5369 28.5474 16.3384 28.0187 15.9301 27.5651C15.4377 27.018 15.6367 28.3665 15.9691 27.7016" stroke="black" stroke-linecap="round"/>
<path d="M22.229 27.4574C21.6119 28.1516 23.0777 27.8118 22.4062 27.8118" stroke="black" stroke-linecap="round"/>
</svg>
