<svg width="40" height="40" viewBox="0 0 40 40" fill="none" xmlns="http://www.w3.org/2000/svg">
<path d="M13.45 21.8069C13.0506 21.8469 12.6593 22.2519 12.3081 22.4298C11.478 22.8504 10.7399 23.3224 9.94347 23.7909C8.46618 24.6599 6.9286 25.4676 5.68716 26.6631C4.73737 27.5777 3.59671 28.1911 2.80925 29.2814C2.54632 29.6455 2.42555 30.0488 2.23828 30.4234" stroke="black" stroke-linecap="round"/>
<path d="M2.23834 30.1119C1.84589 30.1119 2.03985 30.9961 2.11146 31.2539C2.266 31.8102 2.72137 32.3598 3.12652 32.7649C4.0277 33.6661 5.52905 34.3682 6.81186 34.3682C7.38008 34.3682 7.90537 34.6797 8.47286 34.6797C8.96308 34.6797 9.45331 34.6797 9.94353 34.6797C10.6971 34.6797 11.4507 34.6797 12.2043 34.6797" stroke="black" stroke-linecap="round"/>
<path d="M13.2424 21.7031C13.2424 21.0061 14.1151 20.0704 14.5343 19.5749C14.9512 19.0823 15.475 18.2972 16.0454 18.012C16.6414 17.714 17.1399 17.3064 17.7583 17.0315C18.3401 16.7729 18.9093 16.4355 19.5231 16.2991C19.699 16.26 20.1201 16.2442 20.2498 16.1434C20.5115 15.9398 20.5994 15.9412 20.4862 16.2241C20.2148 16.9026 19.8125 17.5572 19.5981 18.2542C19.5286 18.4798 19.6109 18.7284 19.5692 18.9578C19.515 19.2563 19.3674 19.4075 19.3674 19.7307C19.3674 20.2312 19.2636 20.6966 19.2636 21.184" stroke="black" stroke-linecap="round"/>
<path d="M19.1598 21.3917C20.6824 21.3917 22.205 21.3917 23.7275 21.3917C24.8233 21.3917 25.8616 21.3257 26.8996 21.7031C27.8676 22.0551 28.8154 22.6843 29.6794 23.2603C30.4639 23.7833 31.0766 24.6921 31.7211 25.3366" stroke="black" stroke-linecap="round"/>
<path d="M31.6173 25.5442C31.6862 24.9245 32.5834 24.2391 32.9438 23.7794C33.4166 23.1761 33.9477 22.8721 34.5702 22.4759C34.8828 22.277 35.3892 22.0146 35.7698 22.0146C36.1057 22.0146 36.8303 21.8723 36.2946 22.2741C35.7574 22.677 35.5019 23.5647 35.245 24.1427C34.91 24.8964 34.7116 25.5478 34.5471 26.3516C34.452 26.8167 34.5243 27.475 34.2703 27.8742C34.0855 28.1646 34.2226 28.7325 34.1088 29.0738" stroke="black" stroke-linecap="round"/>
<path d="M34.005 29.1776C34.005 29.672 34.2019 30.1943 34.4202 30.631C34.6687 31.128 34.7027 31.7078 34.9162 32.1882C35.0328 32.4505 35.0431 32.8294 35.0431 33.1225C35.0431 33.5526 35.1557 33.8109 35.245 34.2125C35.2833 34.385 35.3256 35.1658 35.1354 35.193C34.4901 35.2851 33.7215 34.6563 33.1226 34.472C32.4933 34.2784 31.8988 33.9612 31.3001 33.6992C30.914 33.5303 30.1515 33.3053 29.9563 32.9149" stroke="black" stroke-linecap="round"/>
<path d="M29.541 32.7072C29.5821 32.7237 28.5841 33.1223 28.4509 33.1744C27.7347 33.4546 26.9429 33.6056 26.1844 33.7223C24.9806 33.9075 23.7445 34.167 22.5625 34.472C21.2654 34.8067 19.6766 34.5758 18.3292 34.5758" stroke="black" stroke-linecap="round"/>
<path d="M11.7891 31.8767C11.7891 32.4135 11.9604 33.3008 12.2043 33.803C12.402 34.2099 12.5294 34.7488 12.8272 35.0891C13.1025 35.4037 13.5221 35.8542 13.6635 36.2311C13.7947 36.5811 14.3356 36.9523 14.6381 37.1481C14.8721 37.2994 15.0447 37.567 15.3187 37.6844C15.9182 37.9414 16.4037 38.2093 17.0835 38.2093" stroke="black" stroke-linecap="round"/>
<path d="M18.0179 31.4615C18.0179 32.8906 17.8149 34.0106 17.1874 35.3025C16.8394 36.0189 16.9798 37.0034 16.9798 37.794" stroke="black" stroke-linecap="round"/>
<path d="M2.79395 32.3568C2.96626 32.374 3.16306 32.445 3.33674 32.4798C3.535 32.5194 3.75231 32.4973 3.95374 32.4973C4.24689 32.4973 4.70823 32.4754 4.90266 32.2162" stroke="black" stroke-linecap="round"/>
<path d="M8.45235 28.6665C8.56931 28.7965 8.58875 29.0908 8.59294 29.2562C8.59735 29.4304 8.67862 29.6629 8.61246 29.8341C8.52411 30.0628 8.42313 30.2832 8.15557 30.2832C7.74474 30.2832 7.62047 28.7907 8.06576 28.7016" stroke="black" stroke-linecap="round"/>
</svg>
