<svg width="40" height="40" viewBox="0 0 40 40" fill="none" xmlns="http://www.w3.org/2000/svg">
<path d="M4.01733 38.8296C4.01733 35.8388 5.15897 33.2636 6.01907 30.457C6.35751 29.3526 6.45949 28.0082 6.96219 26.9732C7.33051 26.2149 7.78369 25.4731 7.82833 24.625C7.8686 23.8598 8.68023 22.7079 9.04092 22.0266C9.20907 21.709 9.51742 21.3543 9.5606 20.9873C9.60553 20.6054 11.8777 20.814 12.1782 20.814C15.9305 20.814 19.8102 20.6408 23.5054 20.6408C24.2092 20.6408 24.8926 20.814 25.5745 20.814C25.9017 20.814 26.2289 20.814 26.5561 20.814C27.4457 20.814 27.3739 20.8553 27.759 21.5936C29.0283 24.0263 30.6281 26.3816 31.7336 28.8691C33.1172 31.982 35.1982 35.0009 35.1982 38.4832" stroke="black" stroke-linecap="round"/>
<path d="M11.8613 29.1008C12.4892 29.5193 13.8711 29.2476 14.6509 29.2476" stroke="black" stroke-linecap="round"/>
<path d="M20.23 29.3944H23.1663" stroke="black" stroke-linecap="round"/>
</svg>
