<svg width="40" height="40" viewBox="0 0 40 40" fill="none" xmlns="http://www.w3.org/2000/svg">
<path d="M5.28552 38.7839C5.28552 37.2376 6.67403 35.77 6.95281 34.2367C7.15023 33.1509 7.61963 32.0608 7.89592 30.9864C8.15986 29.96 8.59987 29.0463 8.85587 28.0223C9.13239 26.9163 9.46407 25.7143 9.91687 24.6793C10.564 23.2002 11.6074 21.7799 12.4094 20.3764C12.6793 19.9041 14.7907 22.2378 15.0871 22.4816C16.0271 23.2544 16.8415 24.1422 17.8323 24.8393C18.2828 25.1564 19.2438 26.3241 19.7858 26.0351C22.0465 24.8294 23.6367 22.6342 25.714 21.2016C26.0537 20.9673 26.3694 20.9169 26.7413 20.7469C27.0287 20.6155 27.2263 20.2776 27.2718 20.528C27.7018 22.8933 28.6199 25.2687 29.5285 27.4834C30.1861 29.0862 31.0606 30.5717 31.7263 32.1484C32.1075 33.0514 32.9695 33.8064 33.1831 34.7672C33.4653 36.0375 34.2356 37.1405 34.2356 38.4807" stroke="black" stroke-linecap="round"/>
<path d="M14.0766 29.2349C13.3872 30.0106 14.4035 31.4112 15.3566 30.978C15.8281 30.7636 15.8955 30.6205 15.8955 30.0686C15.8955 29.5917 15.1578 29.6896 14.8345 29.6896" stroke="black" stroke-linecap="round"/>
<path d="M24.0803 29.3865C23.0224 29.5187 23.8791 30.9022 24.6866 30.9022C25.9076 30.9022 25.784 29.538 24.5351 29.538" stroke="black" stroke-linecap="round"/>
<path d="M17.1082 35.7525C17.7134 35.412 17.9795 34.6452 18.5481 34.3294C18.8452 34.1643 20.1483 35.6038 20.5943 35.7525" stroke="black" stroke-linecap="round"/>
</svg>
