<svg width="40" height="40" viewBox="0 0 40 40" fill="none" xmlns="http://www.w3.org/2000/svg">
<path d="M12.6563 38.793C11.3432 38.0544 10.0106 36.506 9.3444 35.1736C8.57138 33.6275 7.40009 32.1191 7.3336 30.324C7.23896 27.7685 6.76398 24.9789 7.13252 22.3991C7.27855 21.3769 7.70326 20.1602 7.75942 19.2054C7.8439 17.7693 9.19284 16.753 9.84119 15.586C10.3231 14.7185 11.4465 13.6369 12.4552 13.4687C13.3332 13.3224 15.0994 12.5297 15.9682 12.9247C16.7264 13.2693 17.6506 12.9378 18.4048 12.83C19.1199 12.7279 19.9077 12.8182 20.6285 12.8182C22.2845 12.8182 23.9404 12.8182 25.5964 12.8182C26.1101 12.8182 27.0532 12.6115 27.347 13.1257C28.4645 15.0813 29.689 16.5952 29.689 18.9925C29.689 20.7703 30.0161 23.3158 29.0502 24.9067C28.3373 26.081 27.9406 27.8796 27.5599 29.2121C27.1117 30.7806 26.228 32.0651 25.5254 33.4703C24.7782 34.9647 23.3105 36.9789 21.8114 37.7285" stroke="black" stroke-linecap="round"/>
<path d="M11.166 18.9926C11.469 19.2956 14.5274 21.2538 14.1467 21.5001C13.2808 22.0605 12.4407 22.4719 11.5918 23.0378" stroke="black" stroke-linecap="round"/>
<path d="M23.0888 19.4183C22.2698 19.5093 20.0027 21.0335 19.4812 21.642C19.3343 21.8134 21.7894 23.0378 22.4501 23.0378" stroke="black" stroke-linecap="round"/>
<path d="M13.1464 29.0546H19.482" stroke="black" stroke-linecap="round"/>
</svg>
