<svg width="40" height="40" viewBox="0 0 40 40" fill="none" xmlns="http://www.w3.org/2000/svg">
<path d="M5.68066 23.101C5.68066 28.5526 6.73199 33.7529 6.73199 39.1337" stroke="black" stroke-linecap="round"/>
<path d="M6.73206 23.101C14.7007 23.8979 23.0037 23.3638 31.0439 23.3638C32.4412 23.3638 32.7523 23.165 32.7523 24.6926C32.7523 27.2827 33.0152 29.8389 33.0152 32.4315C33.0152 34.4904 33.0152 36.5492 33.0152 38.608" stroke="black" stroke-linecap="round"/>
<path d="M12.3111 27.5007C12.3111 27.9062 12.0763 29.562 12.3506 29.773C12.5702 29.9419 14.9356 30.0136 15.2354 29.7137C15.5662 29.383 15.7979 27.8564 15.1366 27.8564C14.393 27.8564 13.7281 27.6786 13.0224 27.6786" stroke="black" stroke-linecap="round"/>
<path d="M22.2697 28.2121C22.2697 27.6592 22.1518 29.7963 22.7044 29.8126C23.2993 29.8301 23.8973 29.8126 24.4926 29.8126C25.0799 29.8126 24.9678 29.6151 25.2039 29.1901C25.3496 28.9279 25.4707 28.1607 25.4707 27.8564C25.4707 27.5167 24.3487 27.6786 24.1369 27.6786C22.8101 27.6786 22.8032 27.6691 22.8032 28.9234" stroke="black" stroke-linecap="round"/>
<path d="M19.0687 34.7918C18.1598 34.7918 17.2509 34.7918 16.342 34.7918C16.0643 34.7918 14.7323 34.7918 15.8085 34.7918C17.0731 34.7918 18.3376 34.7918 19.6022 34.7918C20.1389 34.7918 20.5911 34.8981 21.1138 34.782C21.6455 34.6638 21.9156 33.9022 22.4475 33.7249" stroke="black" stroke-linecap="round"/>
</svg>
